<svg xmlns="http://www.w3.org/2000/svg" width="38" height="30" viewBox="0 0 38 30"><g><g><g><path fill="#393939" d="M10.434 26.017a1.35 1.35 0 0 1-1.35-1.35v-6.302a1.35 1.35 0 1 1 2.7 0v6.302a1.35 1.35 0 0 1-1.35 1.35zm12.605 0a1.35 1.35 0 0 1-1.35-1.35v-6.302a1.35 1.35 0 1 1 2.7 0v6.302a1.35 1.35 0 0 1-1.35 1.35zm-6.303 0a1.35 1.35 0 0 1-1.35-1.35v-6.302a1.35 1.35 0 1 1 2.7 0v6.302a1.35 1.35 0 0 1-1.35 1.35zm16.206-11.254a1.35 1.35 0 0 0-1.35-1.35h-3.79L21.794 5.15a1.8 1.8 0 0 0-2.913 2.118l4.468 6.144H10.123l4.468-6.144a1.8 1.8 0 1 0-2.912-2.118L5.67 13.413H1.88a1.35 1.35 0 0 0-1.35 1.35v.9c0 .746.605 1.351 1.35 1.351h.451L3.801 27.3a2.701 2.701 0 0 0 2.673 2.319h20.524a2.701 2.701 0 0 0 2.674-2.32l1.47-10.285h.45a1.35 1.35 0 0 0 1.35-1.35v-.9z"/></g><g><path fill="#393939" d="M29.185 1.804a7.815 7.815 0 1 1 0 15.63 7.815 7.815 0 0 1 0-15.63z"/><path fill="none" stroke="#fff" stroke-miterlimit="20" stroke-width="2" d="M29.185 1.804a7.815 7.815 0 1 1 0 15.63 7.815 7.815 0 0 1 0-15.63z"/></g><g><path fill="#f8f8f8" d="M28 13V6h2v7z"/></g><g><path fill="#f8f8f8" d="M25 8h8v3h-8z"/></g></g></g></svg>