<svg xmlns="http://www.w3.org/2000/svg" width="62.864" height="62.864" viewBox="0 0 62.864 62.864"><defs><style>.a{fill:#2973c0;}</style></defs><path class="a" d="M32.763,44.6a16.619,16.619,0,0,0,11.374-4.468c.009-.008.018-.018.026-.026l.01-.01a16.719,16.719,0,0,0,4.392-17.847c-.006-.017-.015-.032-.021-.049l-.007-.018a16.777,16.777,0,0,0-10.431-10.21A6.326,6.326,0,0,0,35.283,9.5a1.048,1.048,0,0,0-1.472.953v4.375l-1.048,1.048-1.048-1.048V10.458A1.048,1.048,0,0,0,30.248,9.5a6.327,6.327,0,0,0-2.815,2.463A16.754,16.754,0,0,0,32.763,44.6ZM27,36.221a.524.524,0,1,1,0-1.048h1.572a1.048,1.048,0,0,0,0-2.1H27a.524.524,0,1,1,0-1.048h1.572a1.048,1.048,0,1,0,0-2.1H27a.524.524,0,1,1,0-1.048h1.572a1.048,1.048,0,0,0,0-2.1H27a.524.524,0,1,1,0-1.048H41.145V36.221Zm7.576,2.1a2.1,2.1,0,0,1-3.627,0ZM36.954,22.6h.487l.7,1.048H36.954Zm6.286,15.46V23.648H46.8A14.5,14.5,0,0,1,43.24,38.061ZM46,21.553H42.192A1.048,1.048,0,0,0,41.145,22.6v1.048h-.487l-1.781-2.677A1.048,1.048,0,0,0,38,20.505H36.954v-.554a6.326,6.326,0,0,0,2.1-4.684,6.164,6.164,0,0,0-.05-.683,14.7,14.7,0,0,1,7,6.969ZM29.927,16.007l2.1,2.1a1.048,1.048,0,0,0,1.481,0l2.1-2.1a1.048,1.048,0,0,0,.307-.741V12.5a4.191,4.191,0,0,1-.629,6.124,1.048,1.048,0,0,0-.419.838v4.191H30.667V19.457a1.048,1.048,0,0,0-.419-.838A4.191,4.191,0,0,1,29.62,12.5v2.771a1.048,1.048,0,0,0,.307.741Zm-3.4-1.429a6.261,6.261,0,0,0-.05.688,6.326,6.326,0,0,0,2.1,4.684v3.7H27a2.619,2.619,0,0,0-2.619,2.619,2.589,2.589,0,0,0,.537,1.572,2.566,2.566,0,0,0,0,3.143,2.566,2.566,0,0,0,0,3.143,2.589,2.589,0,0,0-.537,1.572A2.619,2.619,0,0,0,27,38.317h1.72a4.171,4.171,0,0,0,8.084,0h4.34v1.048a1.032,1.032,0,0,0,.092.419,14.651,14.651,0,1,1-14.71-25.205Z" transform="translate(-1.331 -1.646)"/><path class="a" d="M8.048,33.432H11.82A21.821,21.821,0,0,0,14.382,39.6l-2.674,2.665a1.048,1.048,0,0,0,0,1.483l5.93,5.93a1.048,1.048,0,0,0,.741.307h0a1.048,1.048,0,0,0,.741-.308l2.664-2.673a21.837,21.837,0,0,0,6.17,2.562v3.772A1.048,1.048,0,0,0,29,54.386h8.382a1.048,1.048,0,0,0,1.048-1.048V49.567A21.837,21.837,0,0,0,44.6,47l2.664,2.673a1.048,1.048,0,0,0,.741.308h0a1.048,1.048,0,0,0,.741-.307l5.93-5.93a1.048,1.048,0,0,0,0-1.483L52,39.6a21.821,21.821,0,0,0,2.563-6.168h3.772a1.048,1.048,0,0,0,1.048-1.048V24a1.048,1.048,0,0,0-1.048-1.048H54.567A21.751,21.751,0,0,0,52,16.784l2.674-2.664a1.048,1.048,0,0,0,0-1.483l-5.93-5.93a1.048,1.048,0,0,0-.74-.307h0a1.048,1.048,0,0,0-.741.308L44.6,9.382a21.835,21.835,0,0,0-6.17-2.563V3.048A1.048,1.048,0,0,0,37.384,2H29a1.048,1.048,0,0,0-1.048,1.048V6.82a21.835,21.835,0,0,0-6.17,2.563L19.12,6.708a1.048,1.048,0,0,0-.741-.308h0a1.048,1.048,0,0,0-.741.307l-5.93,5.93a1.048,1.048,0,0,0,0,1.483l2.674,2.664a21.751,21.751,0,0,0-2.563,6.17H8.048A1.048,1.048,0,0,0,7,24v8.382A1.048,1.048,0,0,0,8.048,33.432ZM9.1,25.05h3.562a1.048,1.048,0,0,0,1.028-.838,19.708,19.708,0,0,1,2.905-7,1.048,1.048,0,0,0-.134-1.321L13.931,13.38l4.447-4.445,2.515,2.525a1.048,1.048,0,0,0,1.319.134,19.8,19.8,0,0,1,7-2.91,1.048,1.048,0,0,0,.838-1.027V4.1h6.286V7.658a1.048,1.048,0,0,0,.838,1.027,19.8,19.8,0,0,1,7,2.906,1.048,1.048,0,0,0,1.319-.134l2.515-2.525,4.447,4.445-2.526,2.515a1.048,1.048,0,0,0-.134,1.321,19.708,19.708,0,0,1,2.908,7,1.048,1.048,0,0,0,1.028.838h3.562v6.286H53.729a1.048,1.048,0,0,0-1.027.838,19.769,19.769,0,0,1-2.906,7,1.048,1.048,0,0,0,.134,1.32l2.526,2.515-4.447,4.445-2.515-2.525a1.048,1.048,0,0,0-1.319-.134,19.738,19.738,0,0,1-7,2.91,1.048,1.048,0,0,0-.838,1.027v3.562H30.05V48.729a1.048,1.048,0,0,0-.838-1.027,19.738,19.738,0,0,1-7-2.906,1.048,1.048,0,0,0-1.319.134l-2.515,2.525-4.447-4.445,2.526-2.515a1.048,1.048,0,0,0,.134-1.32,19.77,19.77,0,0,1-2.911-7,1.048,1.048,0,0,0-1.027-.838H9.1Z" transform="translate(-1.761 -2)"/><path class="a" d="M64.147,54.244l-6.286-2.1a1.048,1.048,0,0,0-.662,0l-2.982.994H27.145v-2.1A1.048,1.048,0,0,0,26.1,50H8.286a6.286,6.286,0,0,0,0,12.573H26.1a1.048,1.048,0,0,0,1.048-1.048v-2.1H54.217l2.982.994a1.048,1.048,0,0,0,.662,0l6.286-2.1a1.048,1.048,0,0,0,.717-.994v-2.1a1.048,1.048,0,0,0-.717-.994Zm-39.1,6.233H8.286a4.191,4.191,0,1,1,0-8.382H25.05Zm37.718-3.9-5.239,1.747-2.812-.938a1.048,1.048,0,0,0-.331-.053H27.145v-2.1H54.386a1.048,1.048,0,0,0,.331-.053l2.812-.938,5.239,1.747Z" transform="translate(-2 0.291)"/><path class="a" d="M21.716,57.1H7.048a1.048,1.048,0,0,1,0-2.1H21.716a1.048,1.048,0,1,1,0,2.1Z" transform="translate(-1.809 0.529)"/></svg>