<svg xmlns="http://www.w3.org/2000/svg" width="62.873" height="62.781" viewBox="0 0 62.873 62.781"><defs><style>.a{fill:#2973c0;}</style></defs><g transform="translate(40.636 3.814)"><path class="a" d="M333.187,31.975q-.08-.086-.163-.171a1.226,1.226,0,0,0-1.763,1.7q.068.07.134.141a1.226,1.226,0,0,0,1.792-1.674Z" transform="translate(-330.917 -31.43)"/></g><g transform="translate(0.092)"><g transform="translate(0 0)"><path class="a" d="M62.3,54.08H54.7V51.709a14.506,14.506,0,0,0-9.529-13.6l-4.8-1.742a3.9,3.9,0,0,1-2.519-3.081,10.525,10.525,0,0,0,4.959-6.05h4.413a6.387,6.387,0,0,0,.035-12.773V14.1a13.617,13.617,0,0,0-1.276-5.788,1.226,1.226,0,1,0-2.224,1.035A11.181,11.181,0,0,1,44.806,14.1V24.787H43.265c.014-.224.024-.45.024-.678V14.817A10.486,10.486,0,0,0,32.815,4.343H31.462A10.486,10.486,0,0,0,20.988,14.817V24.11c0,.228.01.453.024.678H19.47V14.1A11.291,11.291,0,0,1,30.749,2.826h2.779a11.176,11.176,0,0,1,4.88,1.107,1.226,1.226,0,0,0,1.062-2.21A13.607,13.607,0,0,0,33.528.373H30.749A13.746,13.746,0,0,0,17.018,14.1v.363a6.387,6.387,0,0,0,.035,12.773h4.413a10.525,10.525,0,0,0,4.959,6.05,3.9,3.9,0,0,1-2.519,3.081l-4.8,1.742a14.506,14.506,0,0,0-9.529,13.6V54.08h-7.6A1.226,1.226,0,0,0,.748,55.306v6.621a1.226,1.226,0,0,0,1.226,1.226H62.3a1.226,1.226,0,0,0,1.226-1.226V55.306A1.226,1.226,0,0,0,62.3,54.08ZM47.259,16.918a3.935,3.935,0,0,1,0,7.869ZM17.018,24.787a3.935,3.935,0,0,1,0-7.869Zm6.422-9.97A8.031,8.031,0,0,1,31.462,6.8h1.353a8.031,8.031,0,0,1,8.022,8.022v3.315h0a7.419,7.419,0,0,1-4.07-1.2,20.788,20.788,0,0,0,2.7-2.279,1.226,1.226,0,1,0-1.734-1.734,17.974,17.974,0,0,1-12.793,5.3h-1.5v-3.4Zm0,9.293V20.666h1.5a20.443,20.443,0,0,0,9.573-2.356,9.85,9.85,0,0,0,6.323,2.275h0V24.11a8.031,8.031,0,0,1-8.022,8.022H31.462A8.031,8.031,0,0,1,23.44,24.11Zm5.3,10.113a10.454,10.454,0,0,0,2.724.362h1.353a10.447,10.447,0,0,0,2.724-.362A6.382,6.382,0,0,0,38.056,37.9a9.231,9.231,0,0,1-11.836,0A6.382,6.382,0,0,0,28.737,34.222ZM12.029,51.709a12.046,12.046,0,0,1,7.914-11.291l3.873-1.405c.023.027.046.053.071.078a11.684,11.684,0,0,0,16.505,0c.025-.025.048-.052.071-.078l3.873,1.405a12.046,12.046,0,0,1,7.914,11.291V54.08H47.69a3.432,3.432,0,0,0-3.29-4.414H36.43a1.226,1.226,0,1,0,0,2.452H44.4a.981.981,0,1,1,0,1.962H19.877a.981.981,0,0,1,0-1.962H26.5a1.226,1.226,0,1,0,0-2.452H19.877a3.432,3.432,0,0,0-3.29,4.414H12.029ZM61.076,60.7H3.2V56.533H61.076V60.7Z" transform="translate(-0.748 -0.373)"/></g></g><g transform="translate(30.25 49.293)"><path class="a" d="M248.43,402.145a1.225,1.225,0,1,0,.359.867A1.236,1.236,0,0,0,248.43,402.145Z" transform="translate(-246.337 -401.786)"/></g><g transform="translate(0 27.274)"><g transform="translate(0)"><path class="a" d="M13.53,222.73a1.228,1.228,0,0,0-1.064-.212l-7.7,2.062a1.226,1.226,0,0,0-.909,1.185v4.391A3.316,3.316,0,0,0,1,231.109a3.161,3.161,0,0,0-.143,4.458,2.941,2.941,0,0,0,2.1.852A3.4,3.4,0,0,0,6.3,233.206c0-.005,0-.011,0-.016s0-.019,0-.028c0-.027,0-.055,0-.082v-6.374l5.25-1.405v2.926a3.314,3.314,0,0,0-2.859.955,3.356,3.356,0,0,0-.993,2.194,2.976,2.976,0,0,0,.85,2.263,2.94,2.94,0,0,0,2.1.852A3.4,3.4,0,0,0,14,231.357a1.219,1.219,0,0,0,.01-.152v-7.5A1.226,1.226,0,0,0,13.53,222.73ZM3.855,233.041a.907.907,0,0,1-.279.648.732.732,0,0,1-.989.143.733.733,0,0,1,.143-.989.916.916,0,0,1,.627-.28.5.5,0,0,1,.362.137.491.491,0,0,1,.136.33Zm7.7-1.919a.909.909,0,0,1-.279.639.732.732,0,0,1-.989.143.517.517,0,0,1-.135-.4.964.964,0,0,1,.9-.869.5.5,0,0,1,.363.137.491.491,0,0,1,.135.327Z" transform="translate(-0.001 -222.476)"/></g></g><g transform="translate(3.854 3.188)"><path class="a" d="M36.959,30.908a1.226,1.226,0,0,0-.978-.486H34.33l.847-2.463a1.226,1.226,0,0,0-2.319-.8l-1.406,4.088a1.226,1.226,0,0,0,1.16,1.625h1.75l-.77,2.73a1.226,1.226,0,1,0,2.36.666l1.21-4.289A1.226,1.226,0,0,0,36.959,30.908Z" transform="translate(-31.385 -26.333)"/></g><g transform="translate(54.031 27.774)"><path class="a" d="M445.572,231.121a1.226,1.226,0,0,0-.978-.486h-1.651l.847-2.463a1.226,1.226,0,0,0-2.319-.8l-1.406,4.088a1.226,1.226,0,0,0,1.159,1.625h1.75l-.77,2.73a1.226,1.226,0,1,0,2.36.666l1.21-4.289A1.226,1.226,0,0,0,445.572,231.121Z" transform="translate(-439.998 -226.546)"/></g><g transform="translate(51.241 0)"><path class="a" d="M425.866,1.386a17.032,17.032,0,0,0-2.559-.968,1.225,1.225,0,0,0-1.54,1.018.594.594,0,0,0-.012.164V8.822A3.634,3.634,0,0,0,418.38,9.83a3.474,3.474,0,0,0-.167,4.9,3.219,3.219,0,0,0,2.3.932,3.748,3.748,0,0,0,3.7-3.783V7.245c.176.073.357.153.538.238,1.37.65,1.7,1.164,1.714,1.268a1.226,1.226,0,0,0,2.452,0V4.835C428.913,3.52,427.888,2.359,425.866,1.386Zm-4.489,11.442a1.046,1.046,0,0,1-1.43.167,1.046,1.046,0,0,1,.167-1.43,1.259,1.259,0,0,1,.87-.381.778.778,0,0,1,.56.214.758.758,0,0,1,.212.488v.038c0,.014,0,.028,0,.043A1.259,1.259,0,0,1,421.378,12.828Zm5.083-7.22q-.281-.157-.594-.307a16.314,16.314,0,0,0-1.658-.68V3.33c.176.073.357.153.538.239,1.373.651,1.7,1.166,1.714,1.266v.773Z" transform="translate(-417.282 -0.374)"/></g><g transform="translate(34.183 21.927)"><path class="a" d="M280.717,179.523a1.226,1.226,0,0,0-1.686-.4l-.079.049a1.226,1.226,0,1,0,1.292,2.085l.069-.042A1.226,1.226,0,0,0,280.717,179.523Z" transform="translate(-278.371 -178.937)"/></g><g transform="translate(26.348 21.927)"><path class="a" d="M216.906,179.522a1.226,1.226,0,0,0-1.687-.4l-.077.048a1.226,1.226,0,1,0,1.292,2.085l.07-.043A1.226,1.226,0,0,0,216.906,179.522Z" transform="translate(-214.561 -178.938)"/></g></svg>