<svg xmlns="http://www.w3.org/2000/svg" width="74.829" height="59.863" viewBox="0 0 74.829 59.863"><defs><style>.a{fill:#2973c0;}</style></defs><path class="a" d="M89.332,99.668l-3.755-2.817-3.61-7.22-1.805-3.611a3.721,3.721,0,0,0-3.346-2.067H65.886v-8.73a1.247,1.247,0,0,0-1.247-1.247H17.247A1.247,1.247,0,0,0,16,75.224V81.46h2.494V76.471H49.408l-1.961,2.494H25.977V81.46h20.98l2.79,3.55-4.242,2.079a1.247,1.247,0,0,0-.669,1.389l1.019,4.613-4.724.033a1.247,1.247,0,0,0-1.205.961l-1.083,4.6-4.27-2.02a1.247,1.247,0,0,0-1.5.343L30.1,100.679l-2.971-3.673a1.247,1.247,0,0,0-1.5-.343l-4.27,2.02-1.083-4.6a1.247,1.247,0,0,0-1.205-.961l-.572,0V83.954H16v31.179a1.247,1.247,0,0,0,1.247,1.247h3.832a8.729,8.729,0,0,0,17.279,0H67.224a8.73,8.73,0,1,0,0-2.494H65.886V86.449h10.93a1.24,1.24,0,0,1,1.115.689l.9,1.806H72.122a1.247,1.247,0,0,0-1.247,1.247v7.483a1.247,1.247,0,0,0,1.247,1.247H84.177l3.659,2.744a1.252,1.252,0,0,1,.5,1v1.247H85.217a1.873,1.873,0,0,0-1.871,1.871v3.741a1.873,1.873,0,0,0,1.871,1.871h3.118v2.494H87.088v2.494h2.494a1.247,1.247,0,0,0,1.247-1.247V102.662a3.757,3.757,0,0,0-1.5-2.993Zm-59.614,21.7a6.236,6.236,0,1,1,6.236-6.236,6.236,6.236,0,0,1-6.236,6.236ZM63.392,85.2v28.684H38.358a8.729,8.729,0,0,0-17.279,0H18.494V97.42l.786,3.336a1.247,1.247,0,0,0,1.747.842l4.777-2.26,3.324,4.109a1.247,1.247,0,0,0,1.939,0l3.324-4.11,4.777,2.26a1.247,1.247,0,0,0,1.747-.842l1.212-5.145,5.285-.037a1.247,1.247,0,0,0,1.209-1.516L47.484,88.9l4.746-2.327a1.247,1.247,0,0,0,.432-1.891L50.13,81.46H60.9V78.966H50.62l1.961-2.494H63.392Zm12.471,23.7a6.236,6.236,0,1,1-6.236,6.236A6.236,6.236,0,0,1,75.863,108.9ZM73.369,96.426V91.437h6.712l2.494,4.989ZM88.335,108.9H85.84V106.4h2.494Zm-58.616,2.494a3.741,3.741,0,1,0,3.741,3.741A3.741,3.741,0,0,0,29.719,111.392Zm0,4.989a1.247,1.247,0,1,1,1.247-1.247A1.247,1.247,0,0,1,29.719,116.38Zm46.145,2.494a3.741,3.741,0,1,0-3.741-3.741A3.741,3.741,0,0,0,75.863,118.875Zm0-4.989a1.247,1.247,0,1,1-1.247,1.247A1.247,1.247,0,0,1,75.863,113.886ZM39.7,108.9H60.9v2.494H39.7ZM23.483,81.46H20.989V78.966h2.494Zm21.2-9.977H27.224V68.989h17.46Zm19.954,49.886H49.673v-2.494H64.639Zm-17.46-2.494v2.494H44.684v-2.494ZM35.954,66.494H20.989V64H35.954Zm-17.46,0H16V64h2.494Z" transform="translate(-16 -64)"/></svg>