<svg xmlns="http://www.w3.org/2000/svg" width="71.138" height="71.128" viewBox="0 0 71.138 71.128"><defs><style>.a{fill:#2973c0;}</style></defs><path class="a" d="M40.959,64.753a36.637,36.637,0,0,1-3.68,1.594C12.75,57.369,11.18,28.792,11.143,22.7A42.5,42.5,0,0,0,37.28,12.884,42.5,42.5,0,0,0,63.417,22.7a62.393,62.393,0,0,1-2.453,16.828,1.227,1.227,0,0,0,2.355.687,62.7,62.7,0,0,0,2.539-18.79,1.227,1.227,0,0,0-1.227-1.165,40.083,40.083,0,0,1-26.481-9.9,1.227,1.227,0,0,0-1.742,0,40.083,40.083,0,0,1-26.481,9.9A1.227,1.227,0,0,0,8.7,21.42c0,.368-1.423,36.943,28.21,47.38a1.153,1.153,0,0,0,.81,0,37.742,37.742,0,0,0,4.428-1.864,1.227,1.227,0,0,0-1.1-2.183Z" transform="translate(-1.711 -1.426)"/><path class="a" d="M55.9,39.488a1.227,1.227,0,0,0,1.533-.8,58.481,58.481,0,0,0,2.453-13.627A1.227,1.227,0,0,0,58.8,23.776a45.173,45.173,0,0,1-21.771-8.353,1.227,1.227,0,0,0-1.447,0,45.786,45.786,0,0,1-21.746,8.353,1.227,1.227,0,0,0-1.092,1.3c.626,8.586,4.109,29.522,23.1,37.323a1.349,1.349,0,0,0,.932,0,30.33,30.33,0,0,0,2.858-1.337A1.227,1.227,0,0,0,38.473,58.9c-.638.343-1.361.675-2.171,1.03C19.842,52.8,16.15,34.692,15.353,26a47.724,47.724,0,0,0,21.01-8.107A47.454,47.454,0,0,0,57.41,26,55.647,55.647,0,0,1,55.1,37.881a1.227,1.227,0,0,0,.8,1.607Z" transform="translate(-0.794 -0.25)"/><path class="a" d="M50.812,41a9.812,9.812,0,1,0,9.812,9.812A9.812,9.812,0,0,0,50.812,41Zm0,17.171a7.359,7.359,0,1,1,7.359-7.359A7.359,7.359,0,0,1,50.812,58.171Z" transform="translate(5.608 5.597)"/><path class="a" d="M51.718,37A14.718,14.718,0,1,0,66.436,51.718,14.718,14.718,0,0,0,51.718,37Zm0,26.983A12.265,12.265,0,1,1,63.983,51.718,12.265,12.265,0,0,1,51.718,63.983Z" transform="translate(4.702 4.691)"/><path class="a" d="M49.126,47.68h3.066a1.227,1.227,0,1,0,0-2.453H50.966a1.227,1.227,0,1,0-2.453,0h0a3.082,3.082,0,1,0,.613,6.133h1.227a.613.613,0,0,1,0,1.227H47.286a1.227,1.227,0,1,0,0,2.453h1.227a1.227,1.227,0,0,0,1.227,1.227h0a1.227,1.227,0,0,0,1.227-1.227h0a3.082,3.082,0,1,0-.613-6.133H49.126a.613.613,0,0,1,0-1.227Z" transform="translate(6.681 6.277)"/><path class="a" d="M9.456,17.7a.6.6,0,0,0,0-.147v-.736A7.359,7.359,0,0,1,23.83,14.561a1.227,1.227,0,1,0,2.33-.76A9.812,9.812,0,0,0,7,16.818,8.757,8.757,0,0,0,7,17.8a1.227,1.227,0,0,0,2.453-.1Z" transform="translate(-2.096 -2.11)"/><path class="a" d="M5.453,17.716a12.265,12.265,0,0,1,23.7-4.452,1.227,1.227,0,1,0,2.281-.883A14.718,14.718,0,0,0,3,17.716a14.559,14.559,0,0,0,2.232,7.776,1.227,1.227,0,1,0,2.122-1.227,12.143,12.143,0,0,1-1.9-6.55Z" transform="translate(-3 -3.009)"/><path class="a" d="M15.075,13.68h3.066a1.227,1.227,0,0,0,0-2.453H16.915a1.227,1.227,0,0,0-2.453,0v.061a3.066,3.066,0,0,0,.331,6.071h.11a1.228,1.228,0,1,0,.11-2.453.589.589,0,0,1-.552-.613.613.613,0,0,1,.613-.613Z" transform="translate(-0.97 -1.425)"/><path class="a" d="M42.075,27.357,33.134,36.31,29.1,32.263A1.232,1.232,0,0,0,27.357,34l4.906,4.906a1.227,1.227,0,0,0,1.742,0L43.816,29.1a1.232,1.232,0,1,0-1.742-1.742Z" transform="translate(2.436 2.425)"/></svg>