<svg xmlns="http://www.w3.org/2000/svg" width="39.411" height="30.654" viewBox="0 0 39.411 30.654"><defs><style>.a{fill:#fff;}</style></defs><path class="a" d="M39.411,14.84v1.095a1.642,1.642,0,0,1-1.642,1.642h-.547L35.435,30.084a3.284,3.284,0,0,1-3.251,2.82H7.227a3.284,3.284,0,0,1-3.251-2.82L2.19,17.577H1.642A1.642,1.642,0,0,1,0,15.935V14.84A1.642,1.642,0,0,1,1.642,13.2H6.25L13.556,3.152A2.19,2.19,0,0,1,17.1,5.727L11.665,13.2H27.747l-5.433-7.47a2.19,2.19,0,0,1,3.542-2.576L33.162,13.2h4.608A1.642,1.642,0,0,1,39.411,14.84ZM21.348,26.882V19.219a1.642,1.642,0,0,0-3.284,0v7.663a1.642,1.642,0,0,0,3.284,0Zm7.663,0V19.219a1.642,1.642,0,1,0-3.284,0v7.663a1.642,1.642,0,1,0,3.284,0Zm-15.327,0V19.219a1.642,1.642,0,1,0-3.284,0v7.663a1.642,1.642,0,1,0,3.284,0Z" transform="translate(0 -2.25)"/></svg>