<svg xmlns="http://www.w3.org/2000/svg" width="46.737" height="46.737" viewBox="0 0 46.737 46.737"><defs><style>.a{fill:#fff;}</style></defs><g transform="translate(16.097 33.658)"><path class="a" d="M190.2,368.72H177.03a.686.686,0,0,0-.686.686v2.927a.686.686,0,0,0,.686.686H190.2a.686.686,0,0,0,.686-.686v-2.927A.686.686,0,0,0,190.2,368.72Zm-.686,2.927h-11.8v-1.555h11.8v1.555Z" transform="translate(-176.344 -368.72)"/></g><g transform="translate(16.097 39.512)"><path class="a" d="M190.2,432.845H177.03a.686.686,0,0,0-.686.686v2.927a.686.686,0,0,0,.686.686H190.2a.686.686,0,0,0,.686-.686v-2.927A.686.686,0,0,0,190.2,432.845Zm-.686,2.927h-11.8v-1.555h11.8v1.555Z" transform="translate(-176.344 -432.845)"/></g><g transform="translate(2.195 35.853)"><path class="a" d="M28.391,392.767a4.344,4.344,0,1,0,4.344,4.344A4.349,4.349,0,0,0,28.391,392.767Zm0,7.317a2.973,2.973,0,1,1,2.973-2.973A2.976,2.976,0,0,1,28.391,400.084Z" transform="translate(-24.047 -392.767)"/></g><g transform="translate(3.658 28.536)"><path class="a" d="M42.959,312.611a2.881,2.881,0,1,0,2.881,2.881A2.884,2.884,0,0,0,42.959,312.611Zm0,4.39a1.509,1.509,0,1,1,1.509-1.509A1.511,1.511,0,0,1,42.959,317Z" transform="translate(-40.078 -312.611)"/></g><g transform="translate(35.853 35.853)"><path class="a" d="M397.111,392.767a4.344,4.344,0,1,0,4.344,4.344A4.349,4.349,0,0,0,397.111,392.767Zm0,7.317a2.973,2.973,0,1,1,2.973-2.973A2.976,2.976,0,0,1,397.111,400.084Z" transform="translate(-392.767 -392.767)"/></g><g transform="translate(37.317 28.536)"><path class="a" d="M411.679,312.611a2.881,2.881,0,1,0,2.881,2.881A2.884,2.884,0,0,0,411.679,312.611Zm0,4.39a1.509,1.509,0,1,1,1.509-1.509A1.511,1.511,0,0,1,411.679,317Z" transform="translate(-408.798 -312.611)"/></g><g transform="translate(0 0)"><path class="a" d="M46.051,0a.686.686,0,0,0-.686.686v1.89L42.393,5.251,39.42,2.576V.686a.686.686,0,0,0-1.372,0V26.341h-3.7a.686.686,0,0,0-.686.686v3.7h-.823V28.49a.686.686,0,0,0-.686-.686H32.1v-.777a.686.686,0,0,0-1.372,0V27.8h-.823v-.777a.686.686,0,1,0-1.372,0V27.8h-.092V19.471l2.084,1.276-.5,3a2.149,2.149,0,1,0,4.24.707L35,20.064a2.152,2.152,0,0,0-.928-2.142L29.682,15a2.142,2.142,0,0,0-1.192-.361H27.442a4.306,4.306,0,0,0,.216-.823h2.3a.686.686,0,1,0,0-1.372h-2.3a4.344,4.344,0,1,0-8.363,2.2h-.317a2.163,2.163,0,0,0-1.29.43l-5.854,4.39a2.153,2.153,0,0,0-.053,3.4l3.658,2.927a2.149,2.149,0,0,0,2.685-3.357l-1.471-1.177,2.369-1.674V27.8h-.091v-.777a.686.686,0,1,0-1.372,0V27.8h-.823v-.777a.686.686,0,1,0-1.372,0V27.8h-.777a.686.686,0,0,0-.686.686v2.241h-.823v-3.7a.686.686,0,0,0-.686-.686h-3.7V.686a.686.686,0,0,0-1.372,0v1.89L4.344,5.251,1.372,2.576V.686A.686.686,0,1,0,0,.686V46.051a.686.686,0,0,0,.686.686H46.051a.686.686,0,0,0,.686-.686V.686A.686.686,0,0,0,46.051,0ZM7.317,4.421v3.5L5.37,6.174ZM6.571,20.808l-2.227,2-2.227-2,2.227-2ZM2.118,14.954l2.227-2,2.227,2-2.227,2Zm4.1,11.387H2.474l1.871-1.684ZM5.37,23.734l1.947-1.752v3.5Zm0-5.854,1.947-1.752v3.5Zm0-5.854,1.947-1.752v3.5ZM6.571,9.1l-2.227,2-2.227-2,2.227-2Zm-5.2-4.679L3.319,6.174,1.372,7.926Zm0,5.854,1.947,1.752L1.372,13.78v-3.5Zm0,5.854,1.947,1.752L1.372,19.633Zm0,5.854,1.947,1.752L1.372,25.487v-3.5ZM11.707,45.365H1.372V27.713H11.707ZM31.382,23.972l.576-3.457a.686.686,0,0,0-.318-.7L31.5,19.73l.866-1.3.949.633a.779.779,0,0,1,.336.775l-.732,4.39a.774.774,0,0,1-.765.65A.785.785,0,0,1,31.382,23.972Zm-8.014-13.82a2.977,2.977,0,0,1,2.892,2.287H20.477A2.977,2.977,0,0,1,23.369,10.152Zm2.892,3.658a2.972,2.972,0,0,1-5.784,0Zm-8.992,9.682a.777.777,0,1,1-.971,1.214l-3.658-2.927a.786.786,0,0,1,.019-1.229l2.284-1.713,1.135,1.135-.958.677a.693.693,0,0,0-.033,1.1Zm-.055-4.323-1.163-1.163,2.461-1.846a.782.782,0,0,1,.466-.155h1.142a4.336,4.336,0,0,0,6.5,0H28.49a.774.774,0,0,1,.431.131l2.3,1.533-.9,1.344-2.209-1.352a.692.692,0,0,0-1.044.585V27.8H26.25V26.3a.686.686,0,0,0-.686-.686h-4.39a.686.686,0,0,0-.686.686V27.8H20.4V18.247a.686.686,0,0,0-1.082-.56Zm7.664,7.811V27.8H21.859v-.823Zm8.78,18.384H13.079V32.1H26.936a.686.686,0,1,0,0-1.372H15.274V29.176H31.463v1.555h-1.54a.686.686,0,1,0,0,1.372h3.735V45.365ZM44.619,9.1l-2.227,2-2.227-2,2.227-2ZM40.166,20.808l2.227-2,2.227,2-2.227,2Zm4.1,5.534H40.522l1.871-1.684Zm-4.1-11.387,2.227-2,2.227,2-2.227,2ZM39.42,4.421l1.947,1.752L39.42,7.926Zm0,5.854,1.947,1.752L39.42,13.78Zm0,5.854,1.947,1.752L39.42,19.633Zm0,5.854,1.947,1.752L39.42,25.487Zm5.945,23.383H35.03V27.713H45.365Zm0-19.878-1.947-1.752,1.947-1.752Zm0-5.854-1.947-1.752,1.947-1.752Zm0-5.854-1.947-1.752,1.947-1.752Zm0-5.854L43.418,6.174l1.947-1.752Z" transform="translate(0 0)"/></g><g transform="translate(27.073 2.93)"><path class="a" d="M306.444,35.88l-5.122-3.658a.692.692,0,0,0-1.085.558v2.477a2.849,2.849,0,0,0-1.143-.236,2.357,2.357,0,0,0-2.515,2.149,2.546,2.546,0,0,0,5.03,0V34.113l3.75,2.678v2.124a2.849,2.849,0,0,0-1.143-.236,2.176,2.176,0,1,0,2.515,2.149v-4.39A.686.686,0,0,0,306.444,35.88Zm-7.35,2.067c-.62,0-1.143-.356-1.143-.777s.524-.777,1.143-.777,1.143.356,1.143.777S299.714,37.947,299.094,37.947Zm5.122,3.658c-.62,0-1.143-.356-1.143-.777s.524-.777,1.143-.777,1.143.356,1.143.777S304.836,41.606,304.216,41.606Z" transform="translate(-296.579 -32.097)"/></g><g transform="translate(9.512 0.002)"><path class="a" d="M113.33.112l-5.122,2.927a.686.686,0,0,0-.346.6V6.843a2.849,2.849,0,0,0-1.143-.236A2.357,2.357,0,0,0,104.2,8.756a2.546,2.546,0,0,0,5.03,0V4.033l3.75-2.143V4.648a2.848,2.848,0,0,0-1.143-.236,2.357,2.357,0,0,0-2.515,2.149,2.546,2.546,0,0,0,5.03,0V.708A.693.693,0,0,0,113.33.112Zm-6.611,9.422c-.62,0-1.143-.356-1.143-.777s.524-.777,1.143-.777,1.143.356,1.143.777S107.339,9.534,106.719,9.534Zm5.122-2.2c-.62,0-1.143-.356-1.143-.777s.524-.777,1.143-.777,1.143.356,1.143.777S112.461,7.339,111.841,7.339Z" transform="translate(-104.204 -0.024)"/></g></svg>