<svg xmlns="http://www.w3.org/2000/svg" width="24.794" height="24.304" viewBox="0 0 24.794 24.304"><defs><style>.a{fill:none;stroke:#ebebeb;stroke-width:3px;}</style></defs><path class="a" d="M19.3,3.937h-.052a5.961,5.961,0,0,0-4.977,2.724A5.961,5.961,0,0,0,9.295,3.937H9.243a5.923,5.923,0,0,0-5.868,5.92,12.752,12.752,0,0,0,2.5,6.952,43.885,43.885,0,0,0,8.393,8.084,43.885,43.885,0,0,0,8.393-8.084,12.752,12.752,0,0,0,2.5-6.952A5.923,5.923,0,0,0,19.3,3.937Z" transform="translate(-1.875 -2.438)"/></svg>