<svg xmlns="http://www.w3.org/2000/svg" width="42" height="42" viewBox="0 0 42 42"><g><g><path fill="#fff" d="M37.856 20.814c0-3.023.25-9.513-.835-12.248a7.012 7.012 0 0 0-3.95-3.95c-2.725-1.075-9.224-.834-12.246-.834-3.023 0-9.513-.25-12.248.835a7.012 7.012 0 0 0-3.95 3.95c-1.075 2.725-.834 9.224-.834 12.247 0 3.022-.25 9.512.835 12.247a7.012 7.012 0 0 0 3.95 3.95c2.725 1.075 9.224.834 12.247.834 3.022 0 9.512.25 12.247-.835a7.012 7.012 0 0 0 3.95-3.95c1.084-2.725.834-9.224.834-12.246zm3.597-8.567c.195 3.43.195 13.703 0 17.133-.167 3.329-.927 6.277-3.356 8.706-2.43 2.438-5.377 3.198-8.706 3.356-3.43.195-13.712.195-17.142 0-3.329-.167-6.268-.927-8.706-3.356C1.105 35.656.344 32.709.187 29.38c-.195-3.43-.195-13.712 0-17.142.167-3.329.918-6.277 3.356-8.706C5.981 1.102 8.93.342 12.249.185c3.43-.195 13.712-.195 17.142 0 3.329.167 6.277.927 8.706 3.356 2.438 2.43 3.198 5.377 3.356 8.706zm-7.055-2.522a2.479 2.479 0 0 1-2.485 2.485 2.485 2.485 0 1 1 2.485-2.485zM27.75 20.814a6.932 6.932 0 0 0-6.925-6.926 6.932 6.932 0 0 0-6.926 6.926c0 3.82 3.115 6.925 6.926 6.925 3.81 0 6.925-3.106 6.925-6.925zm3.727 0a10.636 10.636 0 0 1-10.652 10.652 10.636 10.636 0 0 1-10.653-10.652A10.636 10.636 0 0 1 20.825 10.16a10.636 10.636 0 0 1 10.652 10.653z"/></g></g></svg>