<svg xmlns="http://www.w3.org/2000/svg" width="18" height="12" viewBox="0 0 18 12"><g><g><g><path fill="#2973c0" d="M17.84 1.482l-4.518 4.601a.081.081 0 0 0 0 .118l3.161 3.367a.545.545 0 0 1-.386.932.55.55 0 0 1-.386-.16l-3.149-3.354a.086.086 0 0 0-.122 0l-.768.78a3.38 3.38 0 0 1-2.41 1.017 3.448 3.448 0 0 1-2.46-1.046l-.739-.751a.086.086 0 0 0-.121 0L2.793 10.34a.55.55 0 0 1-.772 0 .545.545 0 0 1 0-.772L5.18 6.2a.09.09 0 0 0 0-.118L.662 1.482a.083.083 0 0 0-.143.059v9.206c0 .74.604 1.344 1.343 1.344h14.778c.739 0 1.343-.605 1.343-1.344V1.541c0-.076-.092-.11-.143-.059z"/></g><g><path fill="#2973c0" d="M9.25 7.687c.621 0 1.205-.244 1.641-.689L17.478.294a1.32 1.32 0 0 0-.83-.294H1.856c-.315 0-.605.11-.831.294l6.587 6.704c.432.441 1.016.689 1.637.689z"/></g></g></g></svg>