<svg xmlns="http://www.w3.org/2000/svg" width="23" height="23" viewBox="0 0 23 23"><g><g><path fill="#2973c0" d="M21.948 18.01c-.864-.865-2.941-2.165-3.965-2.653-1.189-.57-1.624-.56-2.465.047-.7.506-1.154.977-1.96.8-.806-.17-2.394-1.377-3.936-2.912-1.541-1.542-2.741-3.13-2.912-3.936-.17-.812.3-1.26.8-1.96.606-.841.624-1.276.047-2.465-.488-1.03-1.782-3.1-2.653-3.965C4.039.1 3.844.289 3.368.46c0 0-.706.282-1.406.747C1.097 1.783.615 2.266.273 2.99c-.335.723-.723 2.07 1.254 5.589 1.594 2.842 3.159 4.995 5.483 7.313l.006.006.006.006c2.324 2.324 4.471 3.889 7.313 5.483 3.518 1.977 4.866 1.589 5.59 1.254.723-.336 1.206-.818 1.782-1.689.465-.7.747-1.406.747-1.406.171-.477.365-.67-.506-1.536z"/></g></g></svg>