<svg xmlns="http://www.w3.org/2000/svg" width="15" height="15" viewBox="0 0 15 15"><g><g><path fill="#2973c0" d="M14.65 11.811c-.578-.577-1.964-1.445-2.648-1.771-.793-.38-1.083-.373-1.645.031-.467.338-.77.652-1.308.535-.538-.114-1.598-.92-2.627-1.944-1.029-1.03-1.83-2.09-1.944-2.628-.114-.541.2-.84.534-1.307.405-.562.417-.852.032-1.646-.326-.687-1.19-2.07-1.771-2.646-.578-.578-.707-.452-1.025-.338 0 0-.472.188-.939.499-.577.384-.9.706-1.127 1.19-.224.482-.483 1.382.837 3.73 1.064 1.897 2.108 3.334 3.66 4.881l.003.004.004.004c1.552 1.551 2.985 2.596 4.882 3.66 2.348 1.32 3.247 1.06 3.73.837.483-.224.805-.546 1.19-1.127.31-.468.499-.939.499-.939.114-.318.243-.448-.338-1.025z"/></g></g></svg>