<svg xmlns="http://www.w3.org/2000/svg" width="39.448" height="39.961" viewBox="0 0 39.448 39.961"><g transform="translate(-3.286 0.001)"><path d="M163.843,282.655a1.856,1.856,0,0,0,0-2.622l-3.1-3.1a1.853,1.853,0,0,0-2.62,2.622l3.1,3.1a1.856,1.856,0,0,0,2.622,0Zm-4.9-3.929a.683.683,0,0,1,.964-.966h0l3.1,3.1a.683.683,0,0,1-.966.966Z" transform="translate(-142.249 -254.819)"/><path d="M112,331.876l-3.1-3.1a1.853,1.853,0,0,0-2.62,2.622l3.1,3.1A1.854,1.854,0,1,0,112,331.876Zm-.828,1.794a.687.687,0,0,1-.966,0l-3.1-3.1a.683.683,0,1,1,.964-.966h0l3.1,3.1a.684.684,0,0,1,0,.966Z" transform="translate(-94.453 -302.616)"/><path d="M163.861,438.448a.585.585,0,1,0,.588.585.584.584,0,0,0-.588-.585Z" transform="translate(-147.504 -404.228)"/><path d="M196.628,426.288a.585.585,0,1,0,.588.585.584.584,0,0,0-.588-.585Z" transform="translate(-177.714 -393.017)"/><path d="M42.6.636A.7.7,0,0,0,42,.384H40.163a1.313,1.313,0,0,0-.98.4l-.165.165L38.243.171A.585.585,0,0,0,37.415,1l.775.775L36.964,3l-.776-.776a.585.585,0,0,0-.828.828l.776.776L34.909,5.057l-.777-.776a.585.585,0,0,0-.827.829l.777.775-.556.556-9.2,9.205a7.819,7.819,0,0,1,.3-5.674c.219-.6.445-1.213.047-1.621s-.968-.2-1.528-.013c-3.161,1.077-4.54,2.32-5.637,3.855a.585.585,0,0,0,.952.681c.993-1.39,2.187-2.448,5.061-3.428l.057-.019q-.023.065-.051.141a8.781,8.781,0,0,0-.09,6.971L20.337,19.63a1.04,1.04,0,0,0,0,1.474L22.6,23.372a1.043,1.043,0,0,0,1.474,0L26.446,21a4.793,4.793,0,0,1,.176,2.388,2.2,2.2,0,0,0,1.248,2.621,4.131,4.131,0,0,0,1.512.264,5.091,5.091,0,0,1,1.075.136,3.411,3.411,0,0,1-.746,1.009c-.911.973-1.911,1.3-3.809,1.675a4.231,4.231,0,0,0-3.474,3.2c-.257.752-.657,1.854-1.1,2.84A5.9,5.9,0,0,1,17.089,38.7a5.124,5.124,0,0,1-.93.085,6.069,6.069,0,0,1-4.274-1.946L6.6,31.555a6.033,6.033,0,0,1-2.1-5.087,6.935,6.935,0,0,1,3.4-4.745,7.969,7.969,0,0,1,2.56-.824,7.458,7.458,0,0,0,3.27-1.242,12.732,12.732,0,0,0,3.056-4.038l.187-.332a.585.585,0,0,0-1.018-.578l-.189.335a11.877,11.877,0,0,1-2.743,3.68,6.449,6.449,0,0,1-2.793,1.027,9.006,9.006,0,0,0-2.918.96,8.023,8.023,0,0,0-3.976,5.607c-.191,1.466.077,3.708,2.434,6.065l5.287,5.287a7.2,7.2,0,0,0,5.092,2.29,6.357,6.357,0,0,0,1.153-.106A7.05,7.05,0,0,0,22.4,35.611c.461-1.026.874-2.165,1.139-2.94a3.082,3.082,0,0,1,2.592-2.429c2.111-.414,3.313-.823,4.438-2.023.663-.707,1.3-1.529,1.009-2.266s-1.224-.8-2.122-.849a3.941,3.941,0,0,1-1.063-.145c-.6-.3-.718-.574-.606-1.418a5.554,5.554,0,0,0-.456-3.422l9.768-9.768h2.211a1.072,1.072,0,0,0,1.211-.829L41.187,7a.585.585,0,0,0-1.131-.3L39.4,9.18h-2.3L34.768,6.854l2.6-2.6.013-.011.011-.013,2.023-2.023.021-.019.019-.021.555-.556c.044-.044.058-.057.155-.057h1.253l-.68,2.563a.585.585,0,1,0,1.131.3l.821-3.1A.739.739,0,0,0,42.6.636ZM23.337,22.453l-2.083-2.085,1.423-1.423,2.084,2.084ZM25.589,20.2l-2.084-2.084,1.425-1.425,2.084,2.084Zm2.253-2.253-2.084-2.084,1.424-1.424,2.084,2.083ZM30.1,15.695l-2.084-2.083,1.425-1.425L31.52,14.27Zm2.252-2.252-2.084-2.084,1.424-1.424,2.084,2.084Zm3.676-3.677L34.6,11.19,32.516,9.107,33.94,7.682Z"/><path d="M435.5,73.33a.585.585,0,1,0,.59.585.583.583,0,0,0-.59-.585Z" transform="translate(-397.945 -67.607)"/><path d="M452.117,51.985h0a.585.585,0,1,0,.59.585A.583.583,0,0,0,452.112,51.985Z" transform="translate(-413.258 -47.928)"/></g></svg>