<svg xmlns="http://www.w3.org/2000/svg" width="35.956" height="32.382" viewBox="0 0 35.956 32.382"><g transform="translate(-16.768 -21.463)"><path d="M49.807,21.463H19.685a2.921,2.921,0,0,0-2.917,2.917V51.152a.666.666,0,0,0,.666.666h2.379v1.36a.666.666,0,0,0,.666.666h2.026a.666.666,0,0,0,.666-.666v-1.36H46.32v1.36a.666.666,0,0,0,.666.666h2.026a.666.666,0,0,0,.666-.666v-1.36h2.379a.666.666,0,0,0,.666-.666V24.38A2.921,2.921,0,0,0,49.807,21.463ZM19.685,22.8H49.807a1.587,1.587,0,0,1,1.585,1.585v3.268H49.526v-.972a2.5,2.5,0,0,0-2.5-2.5H22.466a2.5,2.5,0,0,0-2.5,2.5v.972H18.1V24.38A1.587,1.587,0,0,1,19.685,22.8ZM21.3,27.648v-.972a1.17,1.17,0,0,1,1.169-1.169h24.56A1.17,1.17,0,0,1,48.2,26.676v.972ZM21.144,43.19h27.2v4.25h-27.2Zm0-1.332v-4.25h27.2v4.25Zm27.2-5.583h-27.2v-4.25H31.206a3.578,3.578,0,0,0,7.08,0H48.347ZM37,31.488a2.252,2.252,0,1,1-4.5,0V28.98H37ZM21.84,52.512h-.694v-.694h.694Zm26.507,0h-.694v-.694h.694Zm3.045-2.026H18.1V28.98H31.161v1.713H20.479a.666.666,0,0,0-.666.666V48.107a.666.666,0,0,0,.666.666H49.013a.666.666,0,0,0,.666-.666V31.359a.666.666,0,0,0-.666-.666H38.33V28.98H51.392Z"/><path d="M62.916,46.568a.666.666,0,0,0,.666-.666V44.379a.666.666,0,0,0-1.332,0V45.9A.666.666,0,0,0,62.916,46.568Z" transform="translate(-28.17 -13.781)"/></g></svg>