<svg xmlns="http://www.w3.org/2000/svg" width="34.612" height="35.686" viewBox="0 0 34.612 35.686"><g transform="translate(0 -10.954)"><path d="M20.322,136.209a.657.657,0,0,0-.657.657v4.961H1.314V115.049h18.35v6.366a.657.657,0,1,0,1.314,0V113.69a2.767,2.767,0,0,0-2.764-2.764H2.764A2.767,2.767,0,0,0,0,113.69v29.5a2.767,2.767,0,0,0,2.764,2.764H18.215a2.767,2.767,0,0,0,2.764-2.764v-6.321a.657.657,0,0,0-.657-.657ZM2.764,112.24H18.215a1.451,1.451,0,0,1,1.45,1.45v.045H1.314v-.045a1.452,1.452,0,0,1,1.45-1.45Zm15.451,32.4H2.764a1.451,1.451,0,0,1-1.45-1.45v-.045h18.35v.045A1.451,1.451,0,0,1,18.215,144.637Z" transform="translate(0 -99.31)"/><path d="M188.2,247.119a1.913,1.913,0,0,0-1.594-.4l-3.818.764a2.771,2.771,0,0,0-2.222,2.71v3.917a3.05,3.05,0,0,0-1.45-.36,2.435,2.435,0,1,0,2.764,2.413V250.2a1.454,1.454,0,0,1,1.166-1.422l3.818-.764a.607.607,0,0,1,.726.595v4.1a3.05,3.05,0,0,0-1.45-.36,2.435,2.435,0,1,0,2.764,2.413V248.6A1.914,1.914,0,0,0,188.2,247.119Zm-9.084,10.144c-.786,0-1.45-.5-1.45-1.1s.664-1.1,1.45-1.1,1.45.5,1.45,1.1S179.906,257.263,179.12,257.263Zm7.023-1.4c-.786,0-1.45-.5-1.45-1.1s.664-1.1,1.45-1.1,1.45.5,1.45,1.1S186.929,255.859,186.143,255.859Z" transform="translate(-160.905 -223.174)"/><path d="M79.711,247.849l-5.556-3.031a1.36,1.36,0,0,0-2.01,1.193v6.062a1.357,1.357,0,0,0,2.01,1.193l5.556-3.031a1.359,1.359,0,0,0,0-2.387Zm-.629,1.233-5.556,3.031a.045.045,0,0,1-.067-.04v-6.062a.04.04,0,0,1,.022-.039.046.046,0,0,1,.024-.007.043.043,0,0,1,.021.006L79.082,249a.045.045,0,0,1,0,.079Z" transform="translate(-65.823 -221.319)"/><path d="M44.25,399.507a2.065,2.065,0,0,0-1.954,1.4H40.738a.657.657,0,1,0,0,1.314H42.3a2.061,2.061,0,0,0,3.907,0H53.38a.657.657,0,1,0,0-1.314H46.2A2.065,2.065,0,0,0,44.25,399.507Zm0,2.809a.747.747,0,1,1,.748-.747A.748.748,0,0,1,44.25,402.316Z" transform="translate(-36.569 -362.608)"/><path d="M319.065,103.389a2.771,2.771,0,0,0-2.222,2.71v3.916a3.05,3.05,0,0,0-1.45-.36,2.435,2.435,0,1,0,2.764,2.413V106.1a1.454,1.454,0,0,1,1.165-1.422.657.657,0,0,0-.258-1.289Zm-3.672,9.779c-.786,0-1.45-.5-1.45-1.1s.664-1.1,1.45-1.1,1.45.5,1.45,1.1S316.179,113.167,315.393,113.167Z" transform="translate(-285.239 -92.422)"/></g></svg>