<svg xmlns="http://www.w3.org/2000/svg" width="22" height="22" viewBox="0 0 22 22"><g><g><path fill="#fff" d="M8.965 14.391A5.422 5.422 0 0 1 3.54 8.966a5.422 5.422 0 0 1 5.425-5.424 5.422 5.422 0 0 1 5.425 5.424 5.422 5.422 0 0 1-5.425 5.425zm12.587 4.522l-4.225-4.225c-.19-.19-.45-.297-.72-.297h-.691a8.772 8.772 0 0 0 1.864-5.425A8.814 8.814 0 0 0 8.965.151 8.814 8.814 0 0 0 .15 8.966a8.814 8.814 0 0 0 8.815 8.816 8.772 8.772 0 0 0 5.425-1.865v.69c0 .272.106.53.297.721l4.225 4.226a1.013 1.013 0 0 0 1.437 0l1.2-1.2a1.022 1.022 0 0 0 .003-1.44z"/></g></g></svg>