<svg xmlns="http://www.w3.org/2000/svg" width="34.153" height="35.486" viewBox="0 0 34.153 35.486"><path d="M45.8,46.579a3.269,3.269,0,0,1-3.268-3.268V24.158l-3.9,3.891L34.688,32l-2.63,2.63,1.652,1.652a2.027,2.027,0,0,1,.565,1.087l.007.043.014.043a1.514,1.514,0,0,1-.616,1.739c-.413.275-5.413,3.3-8.7,5.275a2.037,2.037,0,0,1-2.486-.3l-1.725-1.725a1.149,1.149,0,0,1-.464-.826,1.969,1.969,0,0,1,.348-1.268,26.209,26.209,0,0,1,4.232-4.775l.029-.029c.413-.413.87-.862,1.362-1.362l1.21-1.21a2.038,2.038,0,0,1,1.384-.638,2.794,2.794,0,0,1,1.783.913l.558.659L41.884,23.238l-.536-.565a2.563,2.563,0,0,1,.051-3.551l1.13-1.13V14.368A3.269,3.269,0,0,1,45.8,11.1h5.384a3.269,3.269,0,0,1,3.268,3.268v28.95a3.269,3.269,0,0,1-3.268,3.268H45.8Zm-2.152-3.268A2.152,2.152,0,0,0,45.8,45.463h5.384a2.152,2.152,0,0,0,2.152-2.152V38.8H43.652Zm-14.71-9.833a.887.887,0,0,0-.659.326l-.043.043c-.087.087-.232.225-.406.406l-.094.094-.138.138-.3.3-.384.384-.13.13c-.362.362-.768.768-1.181,1.2l-.08.08-.391.4c-.942.957-1.8,1.826-2.42,2.464-1.333,1.377-1.333,1.377-1.333,1.732V41.5l1.9,1.9.232.239h.341c.283,0,.319,0,4.732-2.638,1.029-.616,2.087-1.254,2.906-1.746.4-.239.725-.442.957-.58.493-.3.7-.428.739-.833v-.072c0-.333-.116-.449-.543-.891-.029-.029-.065-.072-.109-.116a1.391,1.391,0,0,1-.1-.109l-.065-.065a.683.683,0,0,0-.072-.072l-.065-.065-.13-.13-.087-.087c-.072-.072-.145-.145-.217-.225l-.08-.08-.225-.232-.065-.065-.022-.022c-.1-.1-.21-.21-.312-.319l-.109-.109-.536-.536-.13-.13-.13-.13-.109-.109c-.152-.152-.275-.275-.377-.37l-.058-.058a.528.528,0,0,0-.051-.043l-.152-.312Zm14.71,4.2H53.34V17.513l-6.761,6.754a2.45,2.45,0,0,1-1.609.8,1.063,1.063,0,0,1-.283-.036c-.043-.007-.094-.022-.159-.029l-.877-.087Zm5.152-23.8a1.454,1.454,0,0,0-.993.413L47.8,14.3l-5.6,5.6a1.452,1.452,0,0,0,0,2.029L43.76,23.5a1.456,1.456,0,0,0,1.014.435,1.411,1.411,0,0,0,.993-.42L51.376,17.9a1.452,1.452,0,0,0,0-2.029L49.811,14.31A1.45,1.45,0,0,0,48.8,13.875Zm-2.688-1.681a2.512,2.512,0,0,0-1.877.746,2.6,2.6,0,0,0-.58,2.08l.152,1.7,4.254-4.261-1.558-.246A2.894,2.894,0,0,0,46.116,12.194ZM53.384,16.3l-.051-1.993a2.151,2.151,0,0,0-2.1-2.1l-1.993-.051Z" transform="translate(-20.296 -11.1)"/></svg>