<svg xmlns="http://www.w3.org/2000/svg" width="40.639" height="30.717" viewBox="0 0 40.639 30.717"><path d="M33.029,29.527H2.976a1.788,1.788,0,0,1-1.786-1.786V2.976A1.788,1.788,0,0,1,2.976,1.191h2.1A.6.6,0,0,0,5.08,0h-2.1A2.98,2.98,0,0,0,0,2.976V27.741a2.98,2.98,0,0,0,2.976,2.976H33.029a.6.6,0,1,0,0-1.191Zm0,0"/><path d="M119.368,0H89.345a.6.6,0,0,0,0,1.191h30.023a1.788,1.788,0,0,1,1.786,1.786V27.741a1.788,1.788,0,0,1-1.786,1.786h-2.1a.6.6,0,0,0,0,1.191h2.1a2.98,2.98,0,0,0,2.976-2.976V2.976A2.98,2.98,0,0,0,119.368,0Zm0,0" transform="translate(-81.706)"/><path d="M44.667,56H42.286a.6.6,0,0,0-.6.6v2.013A1.868,1.868,0,0,0,40.5,60.348V64a1.868,1.868,0,0,0,1.191,1.738v8.151a.6.6,0,0,0,1.191,0V65.864h1.191V76.637H42.881v-.218a.6.6,0,0,0-1.191,0v.814a.6.6,0,0,0,.6.6h2.381a.6.6,0,0,0,.6-.6v-11.5A1.868,1.868,0,0,0,46.453,64V60.347a1.868,1.868,0,0,0-1.191-1.738V56.6A.6.6,0,0,0,44.667,56Zm-.6,1.191v1.291H42.881V57.191ZM45.262,64a.675.675,0,0,1-.675.675H42.365A.675.675,0,0,1,41.691,64V60.347a.676.676,0,0,1,.675-.675h2.222a.676.676,0,0,1,.675.675Zm0,0" transform="translate(-37.285 -51.555)"/><path d="M124.667,56h-2.381a.6.6,0,0,0-.6.6V68.042a1.868,1.868,0,0,0-1.191,1.738v3.651a1.868,1.868,0,0,0,1.191,1.738v2.062a.6.6,0,0,0,.6.6h2.381a.6.6,0,0,0,.6-.6V75.17a1.868,1.868,0,0,0,1.191-1.738V69.781a1.868,1.868,0,0,0-1.191-1.738V56.6A.6.6,0,0,0,124.667,56Zm-.6,1.191V67.915h-1.191V57.191Zm-1.191,19.446V75.3h1.191v1.34Zm2.381-3.2a.675.675,0,0,1-.675.675h-2.222a.675.675,0,0,1-.675-.675V69.781a.675.675,0,0,1,.675-.675h2.222a.675.675,0,0,1,.675.675Zm0,0" transform="translate(-110.936 -51.555)"/><path d="M204.667,56h-2.381a.6.6,0,0,0-.6.6v3.066A1.868,1.868,0,0,0,200.5,61.4v3.651a1.868,1.868,0,0,0,1.191,1.738V77.232a.6.6,0,0,0,.6.6h2.381a.6.6,0,0,0,.6-.6V66.789a1.868,1.868,0,0,0,1.191-1.738V61.4a1.868,1.868,0,0,0-1.191-1.738V56.6A.6.6,0,0,0,204.667,56Zm-.6,1.191v2.344h-1.191V57.191Zm-1.191,19.446V66.916h1.191v9.721Zm2.381-11.586a.675.675,0,0,1-.675.675h-2.222a.675.675,0,0,1-.675-.675V61.4a.675.675,0,0,1,.675-.675h2.222a.675.675,0,0,1,.675.675Zm0,0" transform="translate(-184.586 -51.555)"/><path d="M284.667,56h-2.381a.6.6,0,0,0-.6.6V67.222A1.868,1.868,0,0,0,280.5,68.96v3.651a1.868,1.868,0,0,0,1.191,1.739v2.882a.6.6,0,0,0,.6.6h2.381a.6.6,0,0,0,.6-.6V74.35a1.868,1.868,0,0,0,1.191-1.738V68.96a1.868,1.868,0,0,0-1.191-1.738V56.6A.6.6,0,0,0,284.667,56Zm-.6,1.191v9.9h-1.191v-9.9Zm-1.191,19.446v-2.16h1.191v2.16Zm2.381-4.025a.675.675,0,0,1-.675.675h-2.222a.675.675,0,0,1-.675-.675V68.96a.675.675,0,0,1,.675-.675h2.222a.675.675,0,0,1,.675.675Zm0,0" transform="translate(-258.236 -51.555)"/><path d="M393.476,56a2.976,2.976,0,1,0,2.976,2.976A2.98,2.98,0,0,0,393.476,56Zm.6,4.66v-.1a.6.6,0,1,0-1.191,0v.1a1.8,1.8,0,0,1-1.088-1.088h.1a.6.6,0,0,0,0-1.191h-.1a1.8,1.8,0,0,1,1.088-1.088v.1a.6.6,0,1,0,1.191,0v-.1a1.8,1.8,0,0,1,1.088,1.088h-.1a.6.6,0,0,0,0,1.191h.1A1.8,1.8,0,0,1,394.072,60.66Zm0,0" transform="translate(-359.505 -51.555)"/><path d="M396.453,258.976a2.976,2.976,0,1,0-2.976,2.976A2.98,2.98,0,0,0,396.453,258.976Zm-2.381,1.684v-.1a.6.6,0,1,0-1.191,0v.1a1.8,1.8,0,0,1-1.088-1.088h.1a.6.6,0,0,0,0-1.191h-.1a1.8,1.8,0,0,1,1.088-1.088v.1a.6.6,0,0,0,1.191,0v-.1a1.8,1.8,0,0,1,1.088,1.088h-.1a.6.6,0,0,0,0,1.191h.1A1.8,1.8,0,0,1,394.072,260.66Zm0,0" transform="translate(-359.505 -235.681)"/><path d="M405.5,147.786v3.969a1.786,1.786,0,1,0,3.572,0v-3.969a1.786,1.786,0,0,0-3.572,0Zm2.381,0v3.969a.6.6,0,1,1-1.191,0v-3.969a.6.6,0,1,1,1.191,0Zm0,0" transform="translate(-373.314 -134.412)"/><path d="M31.691,31.1a.6.6,0,1,1-.6-.6A.6.6,0,0,1,31.691,31.1Zm0,0" transform="translate(-28.079 -28.079)"/><path d="M465.691,31.1a.6.6,0,1,1-.6-.6A.6.6,0,0,1,465.691,31.1Zm0,0" transform="translate(-427.631 -28.079)"/><path d="M31.691,340.568a.6.6,0,1,1-.6-.6A.6.6,0,0,1,31.691,340.568Zm0,0" transform="translate(-28.079 -312.988)"/><path d="M465.691,340.568a.6.6,0,1,1-.6-.6A.6.6,0,0,1,465.691,340.568Zm0,0" transform="translate(-427.631 -312.988)"/><path d="M64.786,107.27H63.6a.6.6,0,1,0,0,1.191h1.191a.6.6,0,0,0,0-1.191Zm0,0" transform="translate(-58 -98.755)"/><path d="M64.786,145.27H63.6a.6.6,0,1,0,0,1.191h1.191a.6.6,0,0,0,0-1.191Zm0,0" transform="translate(-58 -133.739)"/><path d="M64.786,126.27H63.6a.6.6,0,1,0,0,1.191h1.191a.6.6,0,0,0,0-1.191Zm0,0" transform="translate(-58 -116.247)"/><path d="M144.786,226.121H143.6a.6.6,0,1,0,0,1.191h1.191a.6.6,0,1,0,0-1.191Zm0,0" transform="translate(-131.65 -208.173)"/><path d="M144.786,264.121H143.6a.6.6,0,1,0,0,1.191h1.191a.6.6,0,1,0,0-1.191Zm0,0" transform="translate(-131.65 -243.157)"/><path d="M144.786,245.121H143.6a.6.6,0,1,0,0,1.191h1.191a.6.6,0,1,0,0-1.191Zm0,0" transform="translate(-131.65 -225.665)"/><path d="M224.786,120.531H223.6a.6.6,0,0,0,0,1.191h1.191a.6.6,0,0,0,0-1.191Zm0,0" transform="translate(-205.3 -110.964)"/><path d="M224.786,158.531H223.6a.6.6,0,1,0,0,1.191h1.191a.6.6,0,1,0,0-1.191Zm0,0" transform="translate(-205.3 -145.948)"/><path d="M224.786,139.531H223.6a.6.6,0,0,0,0,1.191h1.191a.6.6,0,0,0,0-1.191Zm0,0" transform="translate(-205.3 -128.456)"/><path d="M304.786,215.785H303.6a.6.6,0,0,0,0,1.191h1.191a.6.6,0,1,0,0-1.191Zm0,0" transform="translate(-278.95 -198.658)"/><path d="M304.786,253.785H303.6a.6.6,0,0,0,0,1.191h1.191a.6.6,0,1,0,0-1.191Zm0,0" transform="translate(-278.95 -233.642)"/><path d="M304.786,234.785H303.6a.6.6,0,0,0,0,1.191h1.191a.6.6,0,1,0,0-1.191Zm0,0" transform="translate(-278.95 -216.15)"/></svg>