<svg xmlns="http://www.w3.org/2000/svg" width="29.158" height="41.394" viewBox="0 0 29.158 41.394"><g transform="translate(-77.17 -2)"><path d="M85.63,43.394a.654.654,0,0,1-.652-.652V40.135h-.823L79.4,42.514a.7.7,0,0,1-.293.065.646.646,0,0,1-.619-.856.686.686,0,0,1,.326-.383l4.531-2.257V21.393h-.473L80.44,23.6a.631.631,0,0,1-.432.171h-.041a.611.611,0,0,1-.448-.22l-2.184-2.4a.625.625,0,0,1-.163-.473.666.666,0,0,1,.212-.448l4.351-3.944v-.432a.653.653,0,0,1,.2-.464.661.661,0,0,1,.456-.187h.538l8.654-7.847-.147-.114a.669.669,0,0,1-.253-.513V3.467a.654.654,0,0,1,.652-.652h9.314l.041-.041a3.1,3.1,0,1,1,0,4.645l-.049-.041H98.326L87.912,16.83v3.911a.652.652,0,0,1-1.3,0V16.5H83.023V20.09H84a.653.653,0,0,1,.464.2.661.661,0,0,1,.187.456v18.09h1.956V27.26a.652.652,0,0,1,1.3,0V39.116l3.756,2.257a.6.6,0,0,1,.293.4.617.617,0,0,1-.081.5.649.649,0,0,1-.562.31.614.614,0,0,1-.334-.1l-3.911-2.347h-.79v2.608A.654.654,0,0,1,85.63,43.394ZM80.04,22.2l1.679-1.524v-2.64l-2.99,2.713Zm7.22-7a.7.7,0,0,1,.285.065l.1.049,8.751-7.937H93.485L84.856,15.2ZM103.231,3.3A1.793,1.793,0,1,0,105.024,5.1,1.8,1.8,0,0,0,103.231,3.3Zm-2.95,2.77-.049-.2a2.833,2.833,0,0,1-.1-.774,3.2,3.2,0,0,1,.1-.774l.057-.2H92.475V6.074Z"/><path d="M87.392,45.068a.49.49,0,0,1-.489-.489v-2.77H85.876l-4.783,2.4a.485.485,0,0,1-.22.049.493.493,0,0,1-.44-.269.5.5,0,0,1,.22-.66l4.62-2.306V23.067h-.7l-2.485,2.249a.484.484,0,0,1-.326.13h-.024a.471.471,0,0,1-.334-.163l-2.192-2.412a.465.465,0,0,1-.122-.35.5.5,0,0,1,.163-.342l4.4-3.993v-.5a.456.456,0,0,1,.147-.342.5.5,0,0,1,.342-.147h.6l8.841-8.018-.3-.236a.5.5,0,0,1-.187-.383V5.3a.49.49,0,0,1,.489-.489h9.379l.09-.081a2.933,2.933,0,1,1,0,4.4l-.09-.081H100.03L89.51,18.594v3.985a.489.489,0,0,1-.978,0v-4.4H84.621V22.09h1.141a.456.456,0,0,1,.342.147.5.5,0,0,1,.147.342V40.831h2.282V29.1a.489.489,0,0,1,.978,0V41.043l3.838,2.306a.465.465,0,0,1,.22.3.444.444,0,0,1-.057.367.489.489,0,0,1-.424.236.478.478,0,0,1-.253-.073l-3.952-2.371h-1v2.77A.49.49,0,0,1,87.392,45.068Zm-7.13-22.49,1.532,1.687,1.85-1.679v-3.08ZM86.194,17.2h2.828a.475.475,0,0,1,.212.049l.2.1,9.151-8.3h-3.4Zm18.8-12.223a1.956,1.956,0,1,0,1.956,1.956A1.961,1.961,0,0,0,104.993,4.978Zm-10.919,3.1h8.181l-.106-.407a2.782,2.782,0,0,1-.09-.733,3.17,3.17,0,0,1,.09-.733l.106-.407H94.074Z" transform="translate(-1.762 -1.837)"/><circle cx="0.652" cy="0.652" r="0.652" transform="translate(86.608 23.349)"/><circle cx="0.489" cy="0.489" r="0.489" transform="translate(86.771 23.512)"/></g></svg>