<svg xmlns="http://www.w3.org/2000/svg" width="40.639" height="30.435" viewBox="0 0 40.639 30.435"><g transform="translate(0 -64.279)"><path d="M38.33,114.089a2.8,2.8,0,1,0,2.8,2.8A2.808,2.808,0,0,0,38.33,114.089Zm0,4.417a1.612,1.612,0,1,1,1.5-2.208h-.939a.6.6,0,1,0,0,1.193h.939A1.613,1.613,0,0,1,38.33,118.506Z" transform="translate(-32.705 -45.856)"/><path d="M40.33,198.9a2.8,2.8,0,1,0,0,3.967A2.808,2.808,0,0,0,40.33,198.9Zm-.844,3.123a1.611,1.611,0,0,1-2.619-1.776l.664.664a.6.6,0,0,0,.843-.844l-.664-.664a1.611,1.611,0,0,1,1.776,2.619Z" transform="translate(-32.722 -123.18)"/><path d="M36.363,282.874a2.8,2.8,0,1,0,3.966,0A2.808,2.808,0,0,0,36.363,282.874ZM39.486,286a1.612,1.612,0,1,1-.5-2.619l-.664.664a.6.6,0,0,0,.843.844l.664-.664A1.613,1.613,0,0,1,39.486,286Z" transform="translate(-32.722 -200.49)"/><path d="M123.678,127.277a.6.6,0,1,0-1.149.322,9.347,9.347,0,1,0-.346-2.525.6.6,0,0,0,1.193,0,8.137,8.137,0,1,1,.3,2.2Z" transform="translate(-112.486 -47.371)"/><path d="M188.883,177.624a4.809,4.809,0,1,0-4.809,4.809A4.814,4.814,0,0,0,188.883,177.624Zm-8.425,0a3.616,3.616,0,1,1,3.616,3.616A3.62,3.62,0,0,1,180.459,177.624Z" transform="translate(-165.037 -99.921)"/><path d="M216.544,207.894a2.2,2.2,0,1,0-2.2,2.2A2.2,2.2,0,0,0,216.544,207.894Zm-3.2,0a1.006,1.006,0,1,1,1.006,1.006A1.007,1.007,0,0,1,213.339,207.894Z" transform="translate(-195.307 -130.191)"/><path d="M373.5,177.72a1.2,1.2,0,0,0,1.2,1.2h1.544a1.2,1.2,0,0,0,1.2-1.2v-1.544a1.2,1.2,0,0,0-1.2-1.2H374.7a1.2,1.2,0,0,0-1.2,1.2Zm1.193-1.544a.006.006,0,0,1,.007-.007h1.544a.007.007,0,0,1,.007.007v1.544a.007.007,0,0,1-.007.007H374.7a.007.007,0,0,1-.007-.007Z" transform="translate(-343.855 -101.912)"/><path d="M436.511,176.177a1.2,1.2,0,0,0-1.2-1.2h-1.544a1.2,1.2,0,0,0-1.2,1.2v1.544a1.2,1.2,0,0,0,1.2,1.2h1.544a1.2,1.2,0,0,0,1.2-1.2Zm-1.193,1.544a.007.007,0,0,1-.007.007h-1.544a.007.007,0,0,1-.007-.007v-1.544a.006.006,0,0,1,.007-.007h1.544a.007.007,0,0,1,.007.007Z" transform="translate(-398.234 -101.912)"/><path d="M373.5,243.363a1.2,1.2,0,0,0,1.2,1.2h1.544a1.2,1.2,0,0,0,1.2-1.2v-1.544a1.2,1.2,0,0,0-1.2-1.2H374.7a1.2,1.2,0,0,0-1.2,1.2Zm1.193-1.544a.007.007,0,0,1,.007-.007h1.544a.006.006,0,0,1,.007.007v1.544a.007.007,0,0,1-.007.007H374.7a.007.007,0,0,1-.007-.007Z" transform="translate(-343.855 -162.344)"/><path d="M436.511,241.819a1.2,1.2,0,0,0-1.2-1.2h-1.544a1.2,1.2,0,0,0-1.2,1.2v1.544a1.2,1.2,0,0,0,1.2,1.2h1.544a1.2,1.2,0,0,0,1.2-1.2Zm-1.193,1.544a.007.007,0,0,1-.007.007h-1.544a.007.007,0,0,1-.007-.007v-1.544a.007.007,0,0,1,.007-.007h1.544a.006.006,0,0,1,.007.007Z" transform="translate(-398.234 -162.344)"/><path d="M373.5,307.85a1.2,1.2,0,0,0,1.2,1.2h1.544a1.2,1.2,0,0,0,1.2-1.2v-1.544a1.2,1.2,0,0,0-1.2-1.2H374.7a1.2,1.2,0,0,0-1.2,1.2Zm1.193-1.544a.007.007,0,0,1,.007-.006h1.544a.006.006,0,0,1,.007.006v1.544a.007.007,0,0,1-.007.007H374.7a.007.007,0,0,1-.007-.007Z" transform="translate(-343.855 -221.713)"/><path d="M435.312,305.108h-1.544a1.2,1.2,0,0,0-1.2,1.2v1.544a1.2,1.2,0,0,0,1.2,1.2h1.544a1.2,1.2,0,0,0,1.2-1.2v-1.544A1.2,1.2,0,0,0,435.312,305.108Zm.007,2.743a.007.007,0,0,1-.007.006h-1.544a.007.007,0,0,1-.007-.006v-1.544a.007.007,0,0,1,.007-.007h1.544a.006.006,0,0,1,.007.007Z" transform="translate(-398.235 -221.714)"/><path d="M374.1,141.021h7.438a.6.6,0,1,0,0-1.193H374.1a.6.6,0,0,0,0,1.193Z" transform="translate(-343.855 -69.552)"/><path d="M374.1,111.577h7.438a.6.6,0,1,0,0-1.193H374.1a.6.6,0,0,0,0,1.193Z" transform="translate(-343.855 -42.445)"/><path d="M38.439,64.279H10.825a.6.6,0,0,0,0,1.193H38.439a1.008,1.008,0,0,1,1.007,1.007V89.092A1.008,1.008,0,0,1,38.439,90.1H2.2a1.008,1.008,0,0,1-1.007-1.007V66.479A1.008,1.008,0,0,1,2.2,65.472H8.439a.6.6,0,1,0,0-1.193H2.2a2.2,2.2,0,0,0-2.2,2.2V92.513a2.2,2.2,0,0,0,2.2,2.2H27.019a.6.6,0,0,0,0-1.193H2.2a1.009,1.009,0,0,1-1.007-1.008V91.047a2.185,2.185,0,0,0,1.007.245H38.439a2.185,2.185,0,0,0,1.007-.245v1.466a1.009,1.009,0,0,1-1.007,1.008H29.4a.6.6,0,0,0,0,1.193h9.034a2.2,2.2,0,0,0,2.2-2.2V66.479A2.2,2.2,0,0,0,38.439,64.279Z" transform="translate(0 0)"/></g></svg>