<svg xmlns="http://www.w3.org/2000/svg" width="38.152" height="37.212" viewBox="0 0 38.152 37.212"><path d="M328.36,264.973a.567.567,0,1,1-.567-.567A.567.567,0,0,1,328.36,264.973Zm0,0" transform="translate(-302.843 -244.704)"/><path d="M362.067,264.973a.567.567,0,1,1-.567-.567A.567.567,0,0,1,362.067,264.973Zm0,0" transform="translate(-334.039 -244.704)"/><path d="M395.774,264.973a.567.567,0,1,1-.567-.567A.567.567,0,0,1,395.774,264.973Zm0,0" transform="translate(-365.234 -244.704)"/><path d="M429.485,264.973a.567.567,0,1,1-.567-.567A.567.567,0,0,1,429.485,264.973Zm0,0" transform="translate(-396.433 -244.704)"/><path d="M328.36,289.75a.567.567,0,1,1-.567-.567A.567.567,0,0,1,328.36,289.75Zm0,0" transform="translate(-302.843 -267.635)"/><path d="M362.067,289.75a.567.567,0,1,1-.567-.567A.567.567,0,0,1,362.067,289.75Zm0,0" transform="translate(-334.039 -267.635)"/><path d="M395.774,289.75a.567.567,0,1,1-.567-.567A.567.567,0,0,1,395.774,289.75Zm0,0" transform="translate(-365.234 -267.635)"/><path d="M429.485,289.75a.567.567,0,1,1-.567-.567A.566.566,0,0,1,429.485,289.75Zm0,0" transform="translate(-396.433 -267.635)"/><path d="M35.979,9.982H15.288V6.614a.559.559,0,0,0-.559-.559H13.87V4.439H37.435a.559.559,0,0,0,0-1.118h-23.9a.564.564,0,0,0-.112.011.566.566,0,0,0-.112-.011.559.559,0,0,0-.559.559V6.056h-.859a.559.559,0,0,0-.559.559V9.982H7.149V5.31a.559.559,0,0,0-.559-.559H5.731V.559a.559.559,0,1,0-1.118,0V4.751H3.755A.559.559,0,0,0,3.2,5.31V9.982H2.173A2.175,2.175,0,0,0,0,12.155V34.88a2.335,2.335,0,0,0,2.332,2.332H35.82a2.335,2.335,0,0,0,2.332-2.332V12.155A2.175,2.175,0,0,0,35.979,9.982ZM12.452,7.173H14.17V9.982H12.452Zm-8.139-1.3H6.031V9.982H4.313ZM35.82,36.095H2.332A1.216,1.216,0,0,1,1.118,34.88V16.142h7a.559.559,0,1,0,0-1.118h-7V12.155A1.056,1.056,0,0,1,2.173,11.1H35.979a1.056,1.056,0,0,1,1.055,1.055v2.869H10.356a.559.559,0,1,0,0,1.118H37.034V34.88A1.216,1.216,0,0,1,35.82,36.095Zm0,0"/><path d="M40.978,243.23v-2.039a.559.559,0,0,0-.559-.559h-.828V238.8a.559.559,0,0,0-.559-.559H36.975a.559.559,0,0,0-.559.559v1.831h-.689a.559.559,0,0,0-.559.559v2.039a.559.559,0,0,0,.559.559h.689v1.054a.559.559,0,0,0,1.118,0v-1.054h.94v10.154h-.94v-6.864a.559.559,0,1,0-1.118,0V254.5a.559.559,0,0,0,.559.559h2.058a.559.559,0,0,0,.559-.559V243.789h.828A.559.559,0,0,0,40.978,243.23Zm-3.445-3.87h.94v1.273h-.94Zm2.327,3.311H36.286v-.921H39.86Zm0,0" transform="translate(-32.547 -220.49)"/><path d="M113.88,246.594h-.827V238.8a.559.559,0,0,0-.559-.559h-2.058a.559.559,0,0,0-.559.559v7.793h-.689a.559.559,0,0,0-.559.559v2.039a.559.559,0,0,0,.559.559h.689V254.5a.559.559,0,0,0,.559.559h2.058a.559.559,0,0,0,.559-.559V249.75h.827a.559.559,0,0,0,.559-.559v-2.039A.559.559,0,0,0,113.88,246.594Zm-2.886-7.234h.941v7.234h-.941Zm.941,14.583h-.941V249.75h.941Zm1.386-5.31h-3.574v-.921h3.574Zm0,0" transform="translate(-100.534 -220.49)"/><path d="M187.337,242.868h-.828V238.8a.559.559,0,0,0-.559-.559h-2.058a.559.559,0,0,0-.559.559v4.067h-.689a.559.559,0,0,0-.559.559v2.039a.559.559,0,0,0,.559.559h.689V254.5a.559.559,0,0,0,.559.559h2.058a.559.559,0,0,0,.559-.559v-8.477h.828a.559.559,0,0,0,.559-.559v-2.039A.559.559,0,0,0,187.337,242.868Zm-2.886-3.508h.94v3.508h-.94Zm.94,14.583h-.94v-7.918h.94Zm1.386-9.036H183.2v-.921h3.575Zm0,0" transform="translate(-168.518 -220.49)"/><path d="M305.349,239.8h-12.8a.559.559,0,0,0-.559.559v5.529a.559.559,0,0,0,.559.559h12.8a.559.559,0,0,0,.559-.559v-5.529A.559.559,0,0,0,305.349,239.8Zm-.559,5.529H293.106v-4.411h11.685v4.411Zm0,0" transform="translate(-270.231 -221.936)"/><path d="M305.349,353.281h-12.8a.559.559,0,1,0,0,1.118h12.8a.559.559,0,1,0,0-1.118Zm0,0" transform="translate(-270.231 -326.957)"/><path d="M387.569,392.563h-6.182a.559.559,0,1,0,0,1.118h6.182a.559.559,0,1,0,0-1.118Zm0,0" transform="translate(-352.451 -363.311)"/><path d="M292.547,393.68h4.385a.559.559,0,0,0,0-1.118h-4.385a.559.559,0,1,0,0,1.118Zm0,0" transform="translate(-270.231 -363.311)"/><path d="M305.349,431.844h-12.8a.559.559,0,1,0,0,1.118h12.8a.559.559,0,1,0,0-1.118Zm0,0" transform="translate(-270.231 -399.665)"/></svg>