<svg xmlns="http://www.w3.org/2000/svg" width="38.152" height="38.152" viewBox="0 0 38.152 38.152"><g transform="translate(-0.5 0)"><path d="M37.87,32.652h-1v-.636a1.268,1.268,0,0,0-1.266-1.266H33.485V26.614a4.445,4.445,0,0,0-4.44-4.439h-1.4v-.863a.559.559,0,1,0-1.118,0v.864H24.819a.557.557,0,0,0-.106,0H23.428v-1.95a6.2,6.2,0,0,0,2.68-4.015h.42V18.7a.559.559,0,1,0,1.118,0V16.214h.765a1.78,1.78,0,0,0,1.778-1.778V11.711a1.78,1.78,0,0,0-1.778-1.778h-.19a8.69,8.69,0,0,0-1.971-6.046,1.094,1.094,0,0,0-.211-1.315,9.4,9.4,0,0,0-12.925,0A1.094,1.094,0,0,0,12.9,3.887a8.693,8.693,0,0,0-1.971,6.046h-.189a1.78,1.78,0,0,0-1.778,1.778v2.724a1.78,1.78,0,0,0,1.778,1.778h2.3a6.2,6.2,0,0,0,2.68,4.015l0,1.946H10.106a4.444,4.444,0,0,0-4.439,4.439v4.135H3.543a1.268,1.268,0,0,0-1.266,1.266v.636h-1a.782.782,0,0,0-.781.781v3.939a.782.782,0,0,0,.781.782H37.87a.782.782,0,0,0,.781-.782V33.433A.782.782,0,0,0,37.87,32.652Zm-5.5-6.038v4.135H29.19V23.3A3.326,3.326,0,0,1,32.368,26.614Zm-4.3-3.322v7.457h-.426V23.292ZM24.016,7.6a1.353,1.353,0,0,0-1.947-.646,4.865,4.865,0,0,1-4.979,0,1.354,1.354,0,0,0-1.951.658,4.985,4.985,0,0,0-.337,2.2,6.683,6.683,0,0,1-.844,3.759l-.275-3.738a5.908,5.908,0,1,1,11.785,0l-.275,3.738a6.684,6.684,0,0,1-.844-3.759l0-.061A4.738,4.738,0,0,0,24.016,7.6Zm5.055,4.11v2.724a.661.661,0,0,1-.66.66H26.2l.3-4.045h1.911A.661.661,0,0,1,29.071,11.712ZM27.1,9.934h-.519a7.052,7.052,0,0,0-1.5-4.883l.381-.354A7.572,7.572,0,0,1,27.1,9.934ZM19.576,1.119A8.377,8.377,0,0,1,25.254,3.37l-.928.862a7.029,7.029,0,0,0-9.5,0L13.9,3.37A8.377,8.377,0,0,1,19.576,1.119ZM13.684,4.7l.381.354a7.052,7.052,0,0,0-1.5,4.883h-.519A7.572,7.572,0,0,1,13.684,4.7Zm-3.6,9.739V11.711a.661.661,0,0,1,.66-.66h1.911l.3,4.045H10.741A.661.661,0,0,1,10.081,14.436Zm4.042,1.377-.035-.472a7.807,7.807,0,0,0,1.829-5.6,3.858,3.858,0,0,1,.261-1.706.236.236,0,0,1,.34-.112,5.984,5.984,0,0,0,6.126-.006.235.235,0,0,1,.338.109,3.629,3.629,0,0,1,.258,1.654l0,.061a7.807,7.807,0,0,0,1.829,5.6l-.035.472a5.1,5.1,0,0,1-2.161,3.441,6.276,6.276,0,0,1-3.292,1.37,6.275,6.275,0,0,1-3.291-1.37A5.1,5.1,0,0,1,14.123,15.813Zm2.718,6.365V20.931a6.23,6.23,0,0,0,2.735.811,6.226,6.226,0,0,0,2.734-.811v1.247a1.116,1.116,0,0,0,1.114,1.114h.538c-.793,1.782-2.5,3.419-4.387,3.419s-3.595-1.637-4.387-3.419h.538A1.116,1.116,0,0,0,16.841,22.178ZM6.784,26.614A3.326,3.326,0,0,1,9.962,23.3v3.28a.559.559,0,1,0,1.118,0V23.292h2.9c.832,2.268,2.983,4.537,5.593,4.537s4.76-2.269,5.592-4.537h1.36v7.457H24.8a1.268,1.268,0,0,0-1.266,1.266v.636H22.477v-.773a.559.559,0,1,0-1.118,0v.773H20.135v-.773a.559.559,0,1,0-1.118,0v.773H17.792v-.773a.559.559,0,1,0-1.118,0v.773H15.62v-.636a1.268,1.268,0,0,0-1.266-1.266H11.08V29.184a.559.559,0,0,0-1.118,0v1.565H6.784Zm-3.39,5.4a.149.149,0,0,1,.148-.149H14.354a.149.149,0,0,1,.149.149v.636H3.394Zm34.14,5.019H1.618V33.769H26.089a.559.559,0,0,0,0-1.118h-1.44v-.636a.149.149,0,0,1,.148-.149H35.609a.149.149,0,0,1,.148.149v.636H28.7a.559.559,0,1,0,0,1.118h8.837Zm0,0" transform="translate(0 0)"/><path d="M409.277,456.953a1.351,1.351,0,1,0,1.351,1.351A1.353,1.353,0,0,0,409.277,456.953Zm0,1.585a.234.234,0,1,1,.233-.234A.234.234,0,0,1,409.277,458.538Zm0,0" transform="translate(-377.066 -422.902)"/><path d="M452.641,458.3a1.351,1.351,0,1,0,1.351-1.351A1.353,1.353,0,0,0,452.641,458.3Zm1.585,0a.234.234,0,1,1-.234-.233A.234.234,0,0,1,454.225,458.3Zm0,0" transform="translate(-418.449 -422.902)"/><path d="M36.028,467.586H32.414a.559.559,0,1,0,0,1.118h3.614a.559.559,0,1,0,0-1.118Zm0,0" transform="translate(-29.019 -432.743)"/></g></svg>