<svg xmlns="http://www.w3.org/2000/svg" width="35.956" height="32.585" viewBox="0 0 35.956 32.585"><path d="M6.18,67.933a.561.561,0,0,1-.562-.562,2.247,2.247,0,0,0-4.494,0,.562.562,0,1,1-1.124,0,3.371,3.371,0,0,1,6.742,0A.561.561,0,0,1,6.18,67.933Zm0,0" transform="translate(0 -59.506)"/><path d="M77.214,65.124H48.562a.562.562,0,0,1,0-1.124H77.214a.562.562,0,0,1,0,1.124Zm0,0" transform="translate(-44.629 -59.506)"/><path d="M80.562,245.476a.561.561,0,0,1-.562-.562v-12.36a.562.562,0,1,1,1.124,0v12.36A.561.561,0,0,1,80.562,245.476Zm0,0" transform="translate(-74.382 -215.7)"/><path d="M80.562,114.113a.561.561,0,0,1-.562-.562v-8.989a.562.562,0,0,1,1.124,0v8.989A.561.561,0,0,1,80.562,114.113Zm0,0" transform="translate(-74.382 -96.696)"/><path d="M480.562,245.476a.561.561,0,0,1-.562-.562v-12.36a.562.562,0,1,1,1.124,0v12.36A.561.561,0,0,1,480.562,245.476Zm0,0" transform="translate(-446.291 -215.7)"/><path d="M496.562,114.113a.561.561,0,0,1-.562-.562v-8.989a.562.562,0,1,1,1.124,0v8.989A.561.561,0,0,1,496.562,114.113Zm0,0" transform="translate(-461.168 -96.696)"/><path d="M83.529,449.124H56.562a.562.562,0,1,1,0-1.124H83.529a.562.562,0,1,1,0,1.124Zm0,0" transform="translate(-52.067 -416.539)"/><path d="M16.562,245.476a.561.561,0,0,1-.562-.562v-12.36a.562.562,0,1,1,1.124,0v12.36A.561.561,0,0,1,16.562,245.476Zm0,0" transform="translate(-14.876 -215.7)"/><path d="M.562,114.112A.561.561,0,0,1,0,113.55v-8.988a.562.562,0,0,1,1.124,0v8.988A.561.561,0,0,1,.562,114.112Zm0,0" transform="translate(0 -96.696)"/><path d="M422.18,233.124h-5.618a.562.562,0,0,1,0-1.124h5.618a.562.562,0,0,1,0,1.124Zm0,0" transform="translate(-386.786 -215.708)"/><path d="M209.551,1.124h-8.989a.562.562,0,0,1,0-1.124h8.989a.562.562,0,1,1,0,1.124Zm0,0" transform="translate(-185.955)"/><path d="M192.562,1.685A.561.561,0,0,1,192,1.124,1.125,1.125,0,0,1,193.124,0a.562.562,0,1,1,0,1.124A.561.561,0,0,1,192.562,1.685Zm0,0" transform="translate(-178.517)"/><path d="M329.124,1.685a.561.561,0,0,1-.562-.562h0a.561.561,0,1,1,0-1.123,1.125,1.125,0,0,1,1.124,1.124A.561.561,0,0,1,329.124,1.685Zm0,0" transform="translate(-304.966)"/><path d="M336.562,10.809a.561.561,0,0,1-.562-.562V8.562a.562.562,0,1,1,1.124,0v1.685A.561.561,0,0,1,336.562,10.809Zm0,0" transform="translate(-312.404 -7.438)"/><path d="M192.562,10.809a.561.561,0,0,1-.562-.562V8.562a.562.562,0,1,1,1.124,0v1.685A.561.561,0,0,1,192.562,10.809Zm0,0" transform="translate(-178.517 -7.438)"/><path d="M202.674,33.124H192.562a.562.562,0,1,1,0-1.124h10.113a.562.562,0,1,1,0,1.124Zm0,0" transform="translate(-178.517 -29.753)"/><path d="M336.562,35.371a.561.561,0,0,1-.562-.562V32.562a.562.562,0,1,1,1.124,0v2.247A.561.561,0,0,1,336.562,35.371Zm0,0" transform="translate(-312.404 -29.753)"/><path d="M304.562,35.371a.561.561,0,0,1-.562-.562V32.562a.562.562,0,1,1,1.124,0v2.247A.561.561,0,0,1,304.562,35.371Zm0,0" transform="translate(-282.651 -29.753)"/><path d="M224.562,35.371a.561.561,0,0,1-.562-.562V32.562a.562.562,0,0,1,1.124,0v2.247A.561.561,0,0,1,224.562,35.371Zm0,0" transform="translate(-208.269 -29.753)"/><path d="M192.562,35.371a.561.561,0,0,1-.562-.562V32.562a.562.562,0,1,1,1.124,0v2.247A.561.561,0,0,1,192.562,35.371Zm0,0" transform="translate(-178.517 -29.753)"/><path d="M357.056,191.865h-4.494A.561.561,0,0,1,352,191.3v-6.742a.561.561,0,0,1,.562-.562h4.494a.561.561,0,0,1,.562.562V191.3A.561.561,0,0,1,357.056,191.865Zm-3.933-1.124h3.371v-5.618h-3.371Zm0,0" transform="translate(-327.28 -171.078)"/><path d="M384.562,219.371a.561.561,0,0,1-.562-.562v-2.247a.562.562,0,1,1,1.124,0v2.247A.561.561,0,0,1,384.562,219.371Zm0,0" transform="translate(-357.033 -200.831)"/><path d="M86.18,233.124H80.562a.562.562,0,0,1,0-1.124H86.18a.562.562,0,0,1,0,1.124Zm0,0" transform="translate(-74.382 -215.708)"/><path d="M233.551,233.124h-8.989a.562.562,0,0,1,0-1.124h8.989a.562.562,0,0,1,0,1.124Zm0,0" transform="translate(-208.269 -215.708)"/><path d="M165.056,191.865h-4.494A.561.561,0,0,1,160,191.3v-6.742a.561.561,0,0,1,.562-.562h4.494a.561.561,0,0,1,.562.562V191.3A.561.561,0,0,1,165.056,191.865Zm-3.933-1.124h3.371v-5.618h-3.371Zm0,0" transform="translate(-148.764 -171.078)"/><path d="M192.562,219.371a.561.561,0,0,1-.562-.562v-2.247a.562.562,0,1,1,1.124,0v2.247A.561.561,0,0,1,192.562,219.371Zm0,0" transform="translate(-178.517 -200.831)"/><path d="M6.18,233.124H.562a.562.562,0,0,1,0-1.124H6.18a.562.562,0,0,1,0,1.124Zm0,0" transform="translate(0 -215.708)"/><path d="M19.371,411.933A3.374,3.374,0,0,1,16,408.562a.562.562,0,1,1,1.124,0,2.249,2.249,0,0,0,2.247,2.247.562.562,0,0,1,0,1.124Zm0,0" transform="translate(-14.876 -379.348)"/><path d="M440.562,411.933a.562.562,0,0,1,0-1.124,2.249,2.249,0,0,0,2.247-2.247.562.562,0,1,1,1.124,0A3.374,3.374,0,0,1,440.562,411.933Zm0,0" transform="translate(-409.101 -379.348)"/><path d="M459.371,67.933a.561.561,0,0,1-.562-.562,2.249,2.249,0,0,0-2.247-2.247.562.562,0,1,1,0-1.124,3.374,3.374,0,0,1,3.371,3.371A.561.561,0,0,1,459.371,67.933Zm0,0" transform="translate(-423.977 -59.506)"/><path d="M83.371,411.933A3.374,3.374,0,0,1,80,408.562a.562.562,0,1,1,1.124,0,2.249,2.249,0,0,0,2.247,2.247.562.562,0,0,1,0,1.124Zm0,0" transform="translate(-74.382 -379.348)"/></svg>