<svg xmlns="http://www.w3.org/2000/svg" width="38.268" height="38.267" viewBox="0 0 38.268 38.267"><path d="M18.025,15.018a3.008,3.008,0,1,0-3.008,3.008A3.011,3.011,0,0,0,18.025,15.018Zm-4.894,0A1.886,1.886,0,1,1,15.018,16.9,1.888,1.888,0,0,1,13.131,15.018Zm23.232,12.5a12.551,12.551,0,0,0-6.416-10.885A15.017,15.017,0,0,0,5.434,3.455a.561.561,0,0,0,.716.863,13.9,13.9,0,0,1,22.764,10.7c0,.364-.016.731-.045,1.1a11.557,11.557,0,0,0-1.908-.617.559.559,0,0,0,.272-.48,12.145,12.145,0,0,0-2.175-6.96.561.561,0,1,0-.921.639,11.027,11.027,0,0,1,1.975,6.32.558.558,0,0,0,.112.335,11.58,11.58,0,0,0-5.105.319A6.137,6.137,0,1,0,14.2,21.1a12.764,12.764,0,0,0-1.807,6.423,6.351,6.351,0,0,0-.8.964A13.9,13.9,0,0,1,4.4,6.049a.561.561,0,0,0-.856-.724A15.02,15.02,0,0,0,11.024,29.5a6.388,6.388,0,0,0-.54,2.577,5.471,5.471,0,0,0,5.042,5.455,1.528,1.528,0,0,0,1.307.739h1.3a1.531,1.531,0,0,0,1.529-1.529V29.3a15.061,15.061,0,0,0,8.566-7.136c.136.109.268.224.4.345a1.924,1.924,0,0,0,2.41.2,8.845,8.845,0,0,1,1.083,2.277,1.583,1.583,0,0,0-.194-.014h-1.3a1.531,1.531,0,0,0-1.529,1.529v6.983a.561.561,0,0,0,1.121,0V26.508a.409.409,0,0,1,.408-.408h1.3a.408.408,0,0,1,.4.322l0,.013a.4.4,0,0,1,.007.073V36.738a.421.421,0,0,1-.009.086s0,.008,0,.013a.408.408,0,0,1-.4.309h-1.3a.409.409,0,0,1-.408-.408v-.6a.561.561,0,0,0-1.121,0v.6a1.531,1.531,0,0,0,1.529,1.529h1.3a1.529,1.529,0,0,0,1.307-.739,5.472,5.472,0,0,0,5.042-5.455A6.361,6.361,0,0,0,36.363,27.521ZM10,15.018A5.016,5.016,0,1,1,19.914,16.1a12.114,12.114,0,0,0-5,3.93A5.021,5.021,0,0,1,10,15.018Zm5.3,21.358a4.372,4.372,0,0,1-3.7-4.3,5.255,5.255,0,0,1,.7-2.622.542.542,0,0,0,.053-.089,5.236,5.236,0,0,1,.926-1.142.561.561,0,0,0,.093-.083A5.225,5.225,0,0,1,15.3,27.054Zm3.237-7.5v7.86a.409.409,0,0,1-.408.408h-1.3a.409.409,0,0,1-.393-.3c0-.008,0-.017-.006-.025a.4.4,0,0,1-.009-.085V26.508a.415.415,0,0,1,.006-.069c0-.006,0-.012,0-.019a.408.408,0,0,1,.4-.32h1.3a.409.409,0,0,1,.408.408Zm1.121-.761v-1.61a1.531,1.531,0,0,0-1.529-1.529h-1.3a1.519,1.519,0,0,0-.194.014,8.84,8.84,0,0,1,1.083-2.277,1.926,1.926,0,0,0,2.41-.2,6.094,6.094,0,0,1,4.245-1.679,6.194,6.194,0,0,1,2.91.716A13.941,13.941,0,0,1,19.661,28.118Zm10.29-6.193A.8.8,0,0,1,29.4,21.7a7.327,7.327,0,0,0-10.042,0,.8.8,0,0,1-.95.118,8.475,8.475,0,0,1,.63-.65,7.784,7.784,0,0,1,10.682,0,8.426,8.426,0,0,1,.63.65A.8.8,0,0,1,29.951,21.925Zm1.613-.39a.565.565,0,0,0-.039-.05,9.6,9.6,0,0,0-1.048-1.138,8.906,8.906,0,0,0-12.2,0,9.575,9.575,0,0,0-1.048,1.139.525.525,0,0,0-.039.05A9.971,9.971,0,0,0,15.266,25.9a6.348,6.348,0,0,0-1.711.716,11.079,11.079,0,0,1,10.82-10.291A11.079,11.079,0,0,1,35.2,26.617a6.356,6.356,0,0,0-1.711-.716A9.976,9.976,0,0,0,31.564,21.535Zm1.884,14.84V27.054a5.225,5.225,0,0,1,1.931,1.083.575.575,0,0,0,.093.084,5.241,5.241,0,0,1,1.675,3.852A4.372,4.372,0,0,1,33.448,36.375ZM12.087,3.72a.56.56,0,0,0-.7-.369A12.25,12.25,0,0,0,3.444,11.1a.561.561,0,1,0,1.062.359,11.124,11.124,0,0,1,7.212-7.037A.56.56,0,0,0,12.087,3.72Zm-4.249,6.7a.56.56,0,0,0-.762.22,9.093,9.093,0,0,0-1.015,5.791.561.561,0,0,0,.553.474A.553.553,0,0,0,6.7,16.9a.56.56,0,0,0,.467-.641,7.974,7.974,0,0,1,.889-5.075A.561.561,0,0,0,7.838,10.422Zm0,0"/></svg>