<svg xmlns="http://www.w3.org/2000/svg" width="38.152" height="31.793" viewBox="0 0 38.152 31.793"><g transform="translate(-2 -7)"><path d="M38.308,13.359H36.336V10.007A3.011,3.011,0,0,0,33.329,7h-7.8a.636.636,0,0,0-.636.636V9.887a3.8,3.8,0,0,0-2.543-.979H7.723a5.723,5.723,0,1,0,0,11.445h10.81v9.538a3.179,3.179,0,1,1-6.359,0V26.712A3.185,3.185,0,0,0,9.63,23.6V22.261a.636.636,0,0,0-.636-.636H6.451a.636.636,0,0,0-.636.636H3.908a1.908,1.908,0,0,0,0,3.815H5.815a.636.636,0,0,0,.636.636H8.359v3.179a6.994,6.994,0,1,0,13.989,0V20.353a3.8,3.8,0,0,0,2.543-.979v.979a.636.636,0,0,0,.636.636h3.815v3.874a2.26,2.26,0,0,0-1.908,2.485v7.747a1.9,1.9,0,0,0,.636,3.7h6.359a1.9,1.9,0,0,0,.636-3.7V27.348a2.26,2.26,0,0,0-1.908-2.485V20.989H35.7a.636.636,0,0,0,.636-.636v-.636h1.908a1.958,1.958,0,0,0,1.908-1.908V15.266A1.9,1.9,0,0,0,38.308,13.359ZM5.815,24.8H3.908a.636.636,0,0,1,0-1.272H5.815Zm2.543.636H7.087V22.9H8.359Zm12.717,4.451a5.723,5.723,0,0,1-11.445,0V24.913a1.911,1.911,0,0,1,1.272,1.8v3.179a4.451,4.451,0,1,0,8.9,0V22.9h1.272Zm0-8.266H19.8V20.353h1.272Zm3.815-5.087a2.543,2.543,0,0,1-2.543,2.543H7.723a4.451,4.451,0,1,1,0-8.9H22.348a2.543,2.543,0,0,1,2.543,2.543Zm2.543,3.179H26.163V8.272h1.272Zm1.272,0V8.272h3.815V19.717Zm3.179,1.272V24.8H30.614V20.989ZM28.706,33.706h5.087v1.272H28.706Zm5.723,2.543a.636.636,0,1,1,0,1.272H28.07a.636.636,0,0,1,0-1.272Zm-.636-8.9v5.087H28.706V27.348c0-.915.357-1.272,1.272-1.272h2.543C33.436,26.076,33.793,26.433,33.793,27.348Zm1.272-7.63H33.793V8.342a1.733,1.733,0,0,1,1.272,1.665ZM38.88,17.81a.689.689,0,0,1-.636.636H36.336V14.63h1.971a.63.63,0,0,1,.572.636Z" transform="translate(0 0)"/><path d="M47,39h1.272v1.272H47Z" transform="translate(-16.386 -11.652)"/><path d="M46,43h2.543v1.272H46Z" transform="translate(-16.022 -13.109)"/><path d="M46,20h1.272v3.179H46Z" transform="translate(-16.022 -4.734)"/><path d="M8,22H9.272v1.272H8Z" transform="translate(-2.185 -5.462)"/><path d="M11,19h1.272v1.272H11Z" transform="translate(-3.277 -4.37)"/></g></svg>