<svg xmlns="http://www.w3.org/2000/svg" width="34.612" height="35.022" viewBox="0 0 34.612 35.022"><g transform="translate(-3 0)"><path d="M15.353,20.231a.513.513,0,0,0-.513.513v8.882a4.369,4.369,0,1,1-8.737,0v-.311a2.657,2.657,0,0,0,1.488,0v.311a2.88,2.88,0,1,0,5.76,0v-18.8a4.369,4.369,0,0,1,8.737,0v14.18a2.88,2.88,0,1,0,5.76,0V20.744a.513.513,0,1,0-1.026,0v4.264a1.854,1.854,0,1,1-3.708,0V10.828a5.395,5.395,0,0,0-10.789,0v18.8a1.854,1.854,0,1,1-3.708,0v-.879a2.663,2.663,0,0,0,.9-1.994V23.241a3.833,3.833,0,0,0,1.179-2.767V10.683a1.514,1.514,0,0,0-1-1.422V8.081A1.162,1.162,0,0,0,8.78,6.947V1.932a1.933,1.933,0,0,0-3.866,0V6.947A1.162,1.162,0,0,0,4,8.081v1.18a1.514,1.514,0,0,0-1,1.422v9.792A3.835,3.835,0,0,0,4.177,23.24v3.513a2.663,2.663,0,0,0,.9,2v.878a5.395,5.395,0,1,0,10.789,0V20.744a.513.513,0,0,0-.513-.513ZM4.026,18H9.667v1.849H4.026Zm.485-7.8h4.67a.492.492,0,0,1,.485.486v6.293H4.026V10.683A.486.486,0,0,1,4.512,10.2Zm.513-2.117a.135.135,0,0,1,.133-.135H8.534a.136.136,0,0,1,.134.135v1.09H5.025ZM5.94,1.932a.907.907,0,0,1,1.814,0V6.92H5.94ZM4.055,20.877H9.638A2.817,2.817,0,0,1,8.693,22.6a.515.515,0,0,0-.056.048,2.815,2.815,0,0,1-3.58,0,.518.518,0,0,0-.066-.057,2.817,2.817,0,0,1-.936-1.719Zm2.79,3.444a3.826,3.826,0,0,0,1.643-.369v2.8a1.642,1.642,0,0,1-.667,1.321l-.018.013a1.638,1.638,0,0,1-1.886.021.518.518,0,0,0-.057-.041A1.642,1.642,0,0,1,5.2,26.753v-2.8a3.822,3.822,0,0,0,1.643.369Z"/><path d="M193.466,79.456a5.4,5.4,0,0,0-5.395,5.393V92.4a.513.513,0,0,0,1.026,0V84.849a4.369,4.369,0,0,1,8.737,0v17.038a.744.744,0,0,1-1.488,0V84.849a2.88,2.88,0,1,0-5.76,0v14.18a4.369,4.369,0,0,1-8.737,0V84.849a2.88,2.88,0,1,0-5.76,0V92.4a.513.513,0,0,0,1.026,0V84.849a1.854,1.854,0,1,1,3.708,0v14.18a5.395,5.395,0,0,0,10.789,0V84.849a1.854,1.854,0,1,1,3.708,0v17.038a1.77,1.77,0,0,0,3.541,0V84.849A5.4,5.4,0,0,0,193.466,79.456Z" transform="translate(-161.248 -74.021)"/></g></svg>