<svg xmlns="http://www.w3.org/2000/svg" width="40.639" height="30.433" viewBox="0 0 40.639 30.433"><g transform="translate(0 -64.292)"><path d="M37.657,64.292H25.949a.6.6,0,1,0,0,1.193H37.657a1.791,1.791,0,0,1,1.789,1.789V91.743a1.791,1.791,0,0,1-1.789,1.789H2.982a1.791,1.791,0,0,1-1.789-1.789V67.274a1.791,1.791,0,0,1,1.789-1.789h20.58a.6.6,0,1,0,0-1.193H2.982A2.986,2.986,0,0,0,0,67.274V91.742a2.986,2.986,0,0,0,2.982,2.982H37.656a2.986,2.986,0,0,0,2.982-2.982V67.274A2.986,2.986,0,0,0,37.657,64.292Z"/><path d="M57.92,101.553A12.268,12.268,0,0,0,46.174,117.33a.6.6,0,0,0,1.143-.342,11.071,11.071,0,1,1,.869,2.09.6.6,0,0,0-1.049.569A12.26,12.26,0,1,0,57.92,101.553Z" transform="translate(-42.037 -34.303)"/><path d="M137.877,188.4a5.363,5.363,0,1,0,2.615.679.6.6,0,1,0-.582,1.041,4.174,4.174,0,1,1-2.033-.528.6.6,0,0,0,0-1.193Z" transform="translate(-121.994 -114.261)"/><path d="M174.384,232.318a2.042,2.042,0,1,0,2.042-2.042A2.044,2.044,0,0,0,174.384,232.318Zm2.891,0a.849.849,0,1,1-.849-.849A.85.85,0,0,1,177.275,232.318Z" transform="translate(-160.543 -152.809)"/><path d="M322.641,120.566a1.372,1.372,0,0,0-1.832.1l-2.035,2.035a1.374,1.374,0,0,0,0,1.94l.686.686a1.372,1.372,0,0,0,1.94,0l2.035-2.035a1.369,1.369,0,0,0,.053-1.882l2.025-2.147a.6.6,0,0,0,.163-.409V107.924a2.251,2.251,0,0,0,0-4.341v-1.435a.6.6,0,1,0-1.193,0v1.435a2.251,2.251,0,0,0,0,4.341v10.69Zm-.05,1.88-2.035,2.035a.173.173,0,0,1-.253,0l-.686-.686a.179.179,0,0,1,0-.253l2.035-2.035a.173.173,0,0,1,.253,0l.686.686A.173.173,0,0,1,322.591,122.446Zm1.429-16.691a1.058,1.058,0,1,1,1.058,1.058A1.059,1.059,0,0,1,324.02,105.754Z" transform="translate(-293.103 -34.303)"/><path d="M431.314,231.71a1.855,1.855,0,1,0,1.855,1.855A1.857,1.857,0,0,0,431.314,231.71Zm0,2.518a.662.662,0,1,1,.662-.662A.663.663,0,0,1,431.314,234.228Z" transform="translate(-395.372 -154.13)"/><path d="M431.314,293.958a1.855,1.855,0,1,0,1.855,1.855A1.857,1.857,0,0,0,431.314,293.958Zm0,2.517a.662.662,0,1,1,.662-.662A.663.663,0,0,1,431.314,296.475Z" transform="translate(-395.372 -211.437)"/><path d="M431.314,356.2a1.855,1.855,0,1,0,1.855,1.855A1.857,1.857,0,0,0,431.314,356.2Zm0,2.518a.662.662,0,1,1,.662-.662A.663.663,0,0,1,431.314,358.722Z" transform="translate(-395.372 -268.742)"/></g></svg>