<svg xmlns="http://www.w3.org/2000/svg" width="34.612" height="38.32" viewBox="0 0 34.612 38.32"><g transform="translate(-4 -1)"><path d="M14.326,12.653A4.326,4.326,0,1,0,10,8.326a4.326,4.326,0,0,0,4.326,4.326Zm0-7.417a3.09,3.09,0,1,1-3.09,3.09A3.09,3.09,0,0,1,14.326,5.236Z" transform="translate(-2.292 -1.146)"/><path d="M15.6,11.866A2.266,2.266,0,1,0,13.333,9.6,2.266,2.266,0,0,0,15.6,11.866Zm0-3.3a1.03,1.03,0,1,1-1.03,1.03A1.03,1.03,0,0,1,15.6,8.569Z" transform="translate(-3.565 -2.419)"/><path d="M14.326,27.653A4.326,4.326,0,1,0,10,23.326a4.326,4.326,0,0,0,4.326,4.326Zm0-7.417a3.09,3.09,0,1,1-3.09,3.09A3.09,3.09,0,0,1,14.326,20.236Z" transform="translate(-2.292 -6.875)"/><path d="M15.6,26.866A2.266,2.266,0,1,0,13.333,24.6,2.266,2.266,0,0,0,15.6,26.866Zm0-3.3a1.03,1.03,0,1,1-1.03,1.03A1.03,1.03,0,0,1,15.6,23.569Z" transform="translate(-3.565 -8.148)"/><path d="M18.653,38.326a4.326,4.326,0,1,0-4.326,4.326,4.326,4.326,0,0,0,4.326-4.326Zm-7.417,0a3.09,3.09,0,1,1,3.09,3.09,3.09,3.09,0,0,1-3.09-3.09Z" transform="translate(-2.292 -12.604)"/><path d="M17.866,39.6A2.266,2.266,0,1,0,15.6,41.866,2.266,2.266,0,0,0,17.866,39.6Zm-3.3,0a1.03,1.03,0,1,1,1.03,1.03A1.03,1.03,0,0,1,14.569,39.6Z" transform="translate(-3.565 -13.877)"/><path d="M19.433,36.08a.618.618,0,0,0-.6-.468H13.889V31.9a4.331,4.331,0,0,0,4.326-4.326V5.326A4.331,4.331,0,0,0,13.889,1H10.181A4.331,4.331,0,0,0,5.854,5.326v22.25A4.331,4.331,0,0,0,10.181,31.9v3.708H5.236a.618.618,0,0,0-.6.468l-.618,2.472a.618.618,0,0,0,.6.768H19.452a.618.618,0,0,0,.6-.768ZM7.09,27.577V5.326a3.094,3.094,0,0,1,3.09-3.09h3.708a3.094,3.094,0,0,1,3.09,3.09v22.25a3.094,3.094,0,0,1-3.09,3.09H10.181a3.094,3.094,0,0,1-3.09-3.09ZM11.417,31.9h1.236v3.708H11.417ZM5.41,38.084l.309-1.236H18.351l.309,1.236Z"/><path d="M44.326,12.653A4.326,4.326,0,1,0,40,8.326,4.326,4.326,0,0,0,44.326,12.653Zm0-7.417a3.09,3.09,0,1,1-3.09,3.09A3.09,3.09,0,0,1,44.326,5.236Z" transform="translate(-13.75 -1.146)"/><path d="M45.6,11.866A2.266,2.266,0,1,0,43.333,9.6,2.266,2.266,0,0,0,45.6,11.866Zm0-3.3a1.03,1.03,0,1,1-1.03,1.03A1.03,1.03,0,0,1,45.6,8.569Z" transform="translate(-15.023 -2.419)"/><path d="M44.326,27.653A4.326,4.326,0,1,0,40,23.326,4.326,4.326,0,0,0,44.326,27.653Zm0-7.417a3.09,3.09,0,1,1-3.09,3.09A3.09,3.09,0,0,1,44.326,20.236Z" transform="translate(-13.75 -6.875)"/><path d="M45.6,26.866A2.266,2.266,0,1,0,43.333,24.6,2.266,2.266,0,0,0,45.6,26.866Zm0-3.3a1.03,1.03,0,1,1-1.03,1.03A1.03,1.03,0,0,1,45.6,23.569Z" transform="translate(-15.023 -8.148)"/><path d="M48.653,38.326a4.326,4.326,0,1,0-4.326,4.326A4.326,4.326,0,0,0,48.653,38.326Zm-7.417,0a3.09,3.09,0,1,1,3.09,3.09,3.09,3.09,0,0,1-3.09-3.09Z" transform="translate(-13.75 -12.604)"/><path d="M47.866,39.6A2.266,2.266,0,1,0,45.6,41.866,2.266,2.266,0,0,0,47.866,39.6Zm-3.3,0a1.03,1.03,0,1,1,1.03,1.03A1.03,1.03,0,0,1,44.569,39.6Z" transform="translate(-15.023 -13.877)"/><path d="M50.051,38.552l-.618-2.472a.618.618,0,0,0-.6-.468H43.889V31.9a4.331,4.331,0,0,0,4.326-4.326V5.326A4.331,4.331,0,0,0,43.889,1H40.181a4.331,4.331,0,0,0-4.326,4.326v22.25A4.331,4.331,0,0,0,40.181,31.9v3.708H35.236a.618.618,0,0,0-.6.468l-.618,2.472a.618.618,0,0,0,.6.768H49.452a.618.618,0,0,0,.6-.768ZM37.09,27.577V5.326a3.094,3.094,0,0,1,3.09-3.09h3.708a3.094,3.094,0,0,1,3.09,3.09v22.25a3.094,3.094,0,0,1-3.09,3.09H40.181a3.094,3.094,0,0,1-3.09-3.09ZM41.417,31.9h1.236v3.708H41.417ZM35.41,38.084l.309-1.236H48.351l.309,1.236Z" transform="translate(-11.458)"/></g></svg>