<svg xmlns="http://www.w3.org/2000/svg" width="29.087" height="35.458" viewBox="0 0 29.087 35.458"><g transform="translate(-45.991)"><g transform="translate(50.018)"><path d="M128.441,9.937a3.66,3.66,0,0,0,.665-3.068,9.092,9.092,0,0,0-.781-1.95c-.644-1.309-1.251-2.545-.493-3.886a.692.692,0,1,0-1.205-.682c-1.119,1.977-.246,3.752.456,5.179a8.009,8.009,0,0,1,.672,1.641,2.309,2.309,0,0,1-.395,1.9,3.637,3.637,0,0,1-2.8,1.045l-.8-.814V.693A.693.693,0,0,0,123.068,0h-2.383a.693.693,0,0,0-.693.693V6.661a2.625,2.625,0,0,0-1.822.793l-5.218,5.325-6.359,1.88a.693.693,0,0,0-.3,1.149l1.63,1.663-3.392,1.614a.693.693,0,1,0,.6,1.251l3.822-1.819.87.887a5.346,5.346,0,0,0,1.454,4.654,5.162,5.162,0,0,0,4.568,1.492l.875.893-.983,2.151a.693.693,0,1,0,1.26.576l.762-1.667,1.6,1.636a.693.693,0,0,0,1.161-.3l1.844-6.5,5.22-5.328a2.741,2.741,0,0,0,0-3.817l-1.791-1.827A4.235,4.235,0,0,0,128.441,9.937Zm-7.063-8.552h1V13.374h-1Zm-9.115,21.7a3.954,3.954,0,0,1-1.108-2.322l3.376,3.445A3.785,3.785,0,0,1,112.263,23.09Zm7.25,4.229L108.09,15.662l1.762-.521,1.376,1.4a.693.693,0,0,0,.989-.969l-.861-.879,1.762-.521,7.851,8.012Zm7.082-13.146a1.349,1.349,0,0,1,0,1.878L121.745,21l-7.454-7.607,4.869-4.969a1.252,1.252,0,0,1,.833-.378v6.02a.693.693,0,0,0,.693.693h2.383a.693.693,0,0,0,.693-.693V11.281Z" transform="translate(-104.138)"/></g><g transform="translate(58.341 16.828)"><g transform="translate(0)"><path d="M225.52,243.211l-.01-.01a.693.693,0,0,0-1,.963l.01.01a.693.693,0,1,0,1-.963Z" transform="translate(-224.32 -242.99)"/></g></g><g transform="translate(49.035 26.728)"><g transform="translate(0)"><path d="M95.275,386.15a.693.693,0,0,0-.979.01L90.144,390.4a.693.693,0,0,0,.989.969l4.152-4.238A.693.693,0,0,0,95.275,386.15Z" transform="translate(-89.946 -385.953)"/></g></g><g transform="translate(54.853 28.325)"><g transform="translate(0)"><path d="M177.348,409.135a.693.693,0,0,0-.963.179l-2.312,3.37a.693.693,0,1,0,1.142.784l2.312-3.37A.692.692,0,0,0,177.348,409.135Z" transform="translate(-173.951 -409.013)"/></g></g><g transform="translate(48.32 22.669)"><g transform="translate(0)"><path d="M84.178,327.621a.693.693,0,0,0-.966-.161l-3.3,2.36a.693.693,0,1,0,.805,1.127l3.3-2.36A.692.692,0,0,0,84.178,327.621Z" transform="translate(-79.619 -327.331)"/></g></g><g transform="translate(60.742 29.919)"><g transform="translate(0)"><path d="M259.986,432.084a.693.693,0,0,0-.918.342l-.02.044a.693.693,0,1,0,1.26.576l.02-.044A.693.693,0,0,0,259.986,432.084Z" transform="translate(-258.985 -432.022)"/></g></g><g transform="translate(63.648 31.399)"><g transform="translate(0)"><path d="M302.526,453.421a.693.693,0,0,0-.846.494l-.7,2.673a.693.693,0,1,0,1.34.352l.7-2.673A.693.693,0,0,0,302.526,453.421Z" transform="translate(-300.956 -453.398)"/></g></g><g transform="translate(45.991 15.336)"><g transform="translate(0)"><path d="M49.971,221.96a.693.693,0,0,0-.851-.485l-2.619.716a.693.693,0,1,0,.365,1.336l2.619-.716A.693.693,0,0,0,49.971,221.96Z" transform="translate(-45.991 -221.45)"/></g></g></g></svg>