<svg xmlns="http://www.w3.org/2000/svg" width="35.252" height="35.6" viewBox="0 0 35.252 35.6"><g transform="translate(-2.5 0)"><path d="M94.771,302.377H93.626a.521.521,0,1,0,0,1.043h1.144a.521.521,0,1,0,0-1.043Z" transform="translate(-84.305 -281.352)"/><path d="M142.976,302.377h-1.146a.521.521,0,1,0,0,1.043h1.146a.521.521,0,1,0,0-1.043Z" transform="translate(-129.156 -281.352)"/><path d="M191.207,302.377h-1.146a.521.521,0,1,0,0,1.043h1.146a.521.521,0,1,0,0-1.043Z" transform="translate(-174.034 -281.352)"/><path d="M266.457,263.145a1.885,1.885,0,1,0,1.884,1.884A1.887,1.887,0,0,0,266.457,263.145Zm0,2.728a.842.842,0,1,1,.841-.844A.843.843,0,0,1,266.457,265.873Z" transform="translate(-243.85 -244.848)"/><path d="M266.457,185.335a1.885,1.885,0,1,0,1.884,1.886A1.888,1.888,0,0,0,266.457,185.335Zm0,2.728a.843.843,0,1,1,.841-.842A.842.842,0,0,1,266.457,188.063Z" transform="translate(-243.85 -172.449)"/><path d="M93.2,195.708H85.046a1,1,0,0,0-1,1v3.3a1,1,0,0,0,1,1H93.2a1,1,0,0,0,1-1v-3.3A1,1,0,0,0,93.2,195.708Zm-.045,4.256H85.091v-3.213h8.066Z" transform="translate(-75.878 -182.1)"/><path d="M36.245,10.834H34.218l-.033,0-.021,0-.03,0-.022,0-.027.007-.023.008-.025.009-.024.01-.022.011-.025.014-.019.012-.026.018-.013.009-3.8,3.009H27.723v-.893a2.31,2.31,0,0,0-2.308-2.308H19.369V9.911a1.889,1.889,0,0,0-1.886-1.886h-.609V6.194a.1.1,0,0,1,.1-.1h7.443v.041a1.5,1.5,0,0,0,1.5,1.5h7.72a3.815,3.815,0,0,0,0-7.629h-7.72a1.5,1.5,0,0,0-1.5,1.5v.041H16.2A3.882,3.882,0,0,0,12.32,5.415V8.027a1.888,1.888,0,0,0-1.8,1.884v.843H6.37v-.8A1.937,1.937,0,0,0,4.434,8.025H3.31a.811.811,0,0,0-.81.81V24.056a.811.811,0,0,0,.81.81H10.2v1.167a1.555,1.555,0,0,0,1.553,1.555h.474v1.167a1.554,1.554,0,0,0,1.553,1.553h.436v4.148A1.147,1.147,0,0,0,15.365,35.6h2.823a1.148,1.148,0,0,0,1.147-1.145V30.307h.434a1.555,1.555,0,0,0,1.555-1.553V27.587H21.8a1.556,1.556,0,0,0,1.555-1.555V24.865h2.065a2.309,2.309,0,0,0,2.308-2.306v-.537h2.384l3.8,3.011.005,0a.52.52,0,0,0,.143.078l.012,0a.519.519,0,0,0,.072.018l.016,0a.521.521,0,0,0,.074.006h2.015a1.509,1.509,0,0,0,1.507-1.507v-11.3a1.509,1.509,0,0,0-1.507-1.507ZM25.464,1.5a.455.455,0,0,1,.454-.454h7.72a2.772,2.772,0,0,1,0,5.543h-7.72a.455.455,0,0,1-.454-.454V1.5ZM16.2,2.581h8.224V5.049H16.978a1.148,1.148,0,0,0-1.147,1.145V8.025H13.363V5.415A2.837,2.837,0,0,1,16.2,2.581Zm-4.638,7.33a.844.844,0,0,1,.843-.843h5.08a.844.844,0,0,1,.843.843v.843H11.559V9.911ZM3.543,9.068h.891a.893.893,0,0,1,.893.891V23.822H3.543Zm14.75,25.387a.106.106,0,0,1-.1.1H15.365a.105.105,0,0,1-.1-.1V30.307h3.03v4.148Zm1.989-5.7a.511.511,0,0,1-.512.51H13.784a.51.51,0,0,1-.51-.51V27.587h7.007Zm6.4-6.195a1.265,1.265,0,0,1-1.265,1.263H18.1a.521.521,0,0,0,0,1.043h4.2v1.167a.512.512,0,0,1-.512.512H11.757a.511.511,0,0,1-.51-.512V24.865h4.475a.521.521,0,1,0,0-1.043H6.37V11.8H25.416a1.266,1.266,0,0,1,1.265,1.265v9.5ZM27.723,15h2.044v5.98H27.723Zm8.986,8.64a.464.464,0,0,1-.464.464H34.754V19.2a.521.521,0,0,0-1.043,0v4.344l-2.9-2.3V14.729l2.9-2.3v4.34a.521.521,0,0,0,1.043,0v-4.9h1.491a.464.464,0,0,1,.464.464Z" transform="translate(0 0)"/></g></svg>