<svg xmlns="http://www.w3.org/2000/svg" width="40.639" height="37.458" viewBox="0 0 40.639 37.458"><g transform="translate(0 -20.036)"><path d="M40.639,40.355A20.319,20.319,0,0,0,0,40.355a1.871,1.871,0,0,0,1.365,1.8l1.293,3.2c-.018.036-.037.071-.052.108a1.855,1.855,0,0,0-.012,1.43l3.818,9.437a1.868,1.868,0,0,0,2.432,1.031l1.309-.529a1.861,1.861,0,0,0,2.118.516l1.769-.716A1.87,1.87,0,0,0,15.071,54.2L10.3,42.4a1.87,1.87,0,0,0-2.432-1.031L6.1,42.084a1.871,1.871,0,0,0-1.164,1.843l-1.308.529-.037.017-.974-2.407a1.87,1.87,0,0,0,1.122-1.712,16.64,16.64,0,0,1,.355-3.423.6.6,0,0,0-1.165-.245,17.831,17.831,0,0,0-.381,3.668.677.677,0,1,1-1.354,0,19.059,19.059,0,0,1,5.2-13.092l.955.955A17.744,17.744,0,0,0,3.719,34a.6.6,0,1,0,1.111.427A16.584,16.584,0,0,1,36.9,40.355a1.871,1.871,0,0,0,1.138,1.719l-.971,2.4-.037-.017-1.308-.529a1.871,1.871,0,0,0-1.163-1.843l-1.769-.716A1.87,1.87,0,0,0,30.36,42.4L25.587,54.2a1.87,1.87,0,0,0,1.031,2.432l1.769.716a1.864,1.864,0,0,0,2.118-.516l1.309.53a1.868,1.868,0,0,0,2.432-1.031l3.818-9.437a1.855,1.855,0,0,0-.012-1.43c-.016-.037-.034-.073-.052-.108l1.3-3.2a1.871,1.871,0,0,0,1.343-1.792ZM5.289,45.068l.254.628a.6.6,0,0,0,1.1-.447L6.169,44.07h0a.678.678,0,0,1,.374-.882l1.769-.716a.678.678,0,0,1,.882.374l4.773,11.8a.678.678,0,0,1-.374.882l-1.769.716a.677.677,0,0,1-.882-.374L7.6,47.609a.6.6,0,1,0-1.1.447L9.615,55.76,8.4,56.253a.678.678,0,0,1-.882-.374L3.7,46.442a.677.677,0,0,1,.374-.882ZM20.319,22.581A17.646,17.646,0,0,0,10.143,25.79a18.033,18.033,0,0,0-1.959,1.588l-.956-.956a19.092,19.092,0,0,1,26.183,0l-.958.958A17.709,17.709,0,0,0,20.319,22.581Zm12.976,5.641.958-.958a19.059,19.059,0,0,1,5.2,13.091.677.677,0,1,1-1.354,0,17.708,17.708,0,0,0-4.8-12.134ZM36.96,46.442l-3.818,9.437a.678.678,0,0,1-.882.374l-1.218-.493,3.118-7.705a.6.6,0,0,0-1.1-.447l-3.341,8.257h0a.677.677,0,0,1-.882.374l-1.769-.716a.678.678,0,0,1-.374-.882l4.773-11.8a.678.678,0,0,1,.882-.374l1.769.716a.678.678,0,0,1,.374.882l-.477,1.18a.6.6,0,0,0,1.1.447l.254-.628,1.218.493a.677.677,0,0,1,.374.882Z"/></g></svg>