<svg xmlns="http://www.w3.org/2000/svg" width="19" height="15" viewBox="0 0 19 15"><g><g><path fill="#2973c0" d="M16.409 7.135h-4.014V4.014h1.23l2.784 2.784zm-2.23 5.797a1.338 1.338 0 1 1 0-2.676 1.338 1.338 0 0 1 0 2.676zm-8.919 0a1.338 1.338 0 1 1 0-2.676 1.338 1.338 0 0 1 0 2.676zm12.933-3.121h-.446V6.798c0-.354-.142-.694-.393-.945L14.569 3.07c-.25-.251-.59-.393-.944-.393h-1.23V1.338C12.395.599 11.796 0 11.058 0H3.922c-.738 0-1.337.6-1.337 1.338v1.338H1.024c-.123 0-.223.1-.223.223v.446c0 .122.1.223.223.223h7.58c.123 0 .224.1.224.223v.446c0 .122-.1.222-.223.222h-6.69c-.122 0-.222.1-.222.223v.446c0 .123.1.223.223.223h5.797c.123 0 .223.1.223.223v.446c0 .123-.1.223-.223.223h-6.69c-.122 0-.222.1-.222.223v.446c0 .123.1.223.223.223H6.82c.123 0 .223.1.223.223v.446c0 .123-.1.223-.223.223H2.585v3.568a2.676 2.676 0 0 0 5.35 0h3.568a2.676 2.676 0 0 0 5.352 0h1.338c.245 0 .446-.201.446-.446v-.892c0-.245-.201-.446-.446-.446z"/></g></g></svg>